<svg width="64" height="64" viewBox="0 0 64 64" fill="none" xmlns="http://www.w3.org/2000/svg">
<mask id="mask0_2_41086" style="mask-type:alpha" maskUnits="userSpaceOnUse" x="0" y="0" width="64" height="64">
<rect width="64" height="64" fill="#D9D9D9"/>
</mask>
<g mask="url(#mask0_2_41086)">
<path d="M19.7343 46C17.8677 47.5556 15.9232 48.2667 13.901 48.1333C11.8788 48 10.1121 47.3111 8.601 46.0667C7.08989 44.8222 6.05656 43.1889 5.501 41.1667C4.94545 39.1444 5.31212 37.0667 6.601 34.9333L11.601 26.6667C10.4899 25.6889 9.61212 24.5111 8.96767 23.1333C8.32323 21.7556 8.001 20.2667 8.001 18.6667C8.001 15.7333 9.04545 13.2222 11.1343 11.1333C13.2232 9.04444 15.7343 8 18.6677 8C21.601 8 24.1121 9.04444 26.201 11.1333C28.2899 13.2222 29.3343 15.7333 29.3343 18.6667C29.3343 21.6 28.2899 24.1111 26.201 26.2C24.1121 28.2889 21.601 29.3333 18.6677 29.3333C18.2677 29.3333 17.8677 29.3111 17.4677 29.2667C17.0677 29.2222 16.6899 29.1556 16.3343 29.0667L11.201 37.7333C10.7121 38.5333 10.5566 39.3222 10.7343 40.1C10.9121 40.8778 11.2899 41.5111 11.8677 42C12.4454 42.4889 13.1343 42.7667 13.9343 42.8333C14.7343 42.9 15.5121 42.6222 16.2677 42L44.2677 17.9333C46.1343 16.3778 48.0899 15.6778 50.1343 15.8333C52.1788 15.9889 53.9566 16.6889 55.4677 17.9333C56.9788 19.1778 58.001 20.8111 58.5343 22.8333C59.0677 24.8556 58.6899 26.9333 57.401 29.0667L52.401 37.3333C53.5121 38.3111 54.3899 39.4889 55.0343 40.8667C55.6788 42.2444 56.001 43.7333 56.001 45.3333C56.001 48.2667 54.9566 50.7778 52.8677 52.8667C50.7788 54.9556 48.2677 56 45.3343 56C42.401 56 39.8899 54.9556 37.801 52.8667C35.7121 50.7778 34.6677 48.2667 34.6677 45.3333C34.6677 42.4 35.7121 39.8889 37.801 37.8C39.8899 35.7111 42.401 34.6667 45.3343 34.6667C45.7343 34.6667 46.1232 34.6889 46.501 34.7333C46.8788 34.7778 47.2455 34.8444 47.601 34.9333L52.801 26.2667C53.2899 25.4667 53.4455 24.6778 53.2677 23.9C53.0899 23.1222 52.7121 22.4889 52.1343 22C51.5566 21.5111 50.8677 21.2333 50.0677 21.1667C49.2677 21.1 48.4899 21.3778 47.7343 22L19.7343 46ZM18.6677 24C20.1343 24 21.3899 23.4778 22.4343 22.4333C23.4788 21.3889 24.001 20.1333 24.001 18.6667C24.001 17.2 23.4788 15.9444 22.4343 14.9C21.3899 13.8556 20.1343 13.3333 18.6677 13.3333C17.201 13.3333 15.9454 13.8556 14.901 14.9C13.8566 15.9444 13.3343 17.2 13.3343 18.6667C13.3343 20.1333 13.8566 21.3889 14.901 22.4333C15.9454 23.4778 17.201 24 18.6677 24ZM45.3343 50.6667C46.801 50.6667 48.0566 50.1444 49.101 49.1C50.1455 48.0556 50.6677 46.8 50.6677 45.3333C50.6677 43.8667 50.1455 42.6111 49.101 41.5667C48.0566 40.5222 46.801 40 45.3343 40C43.8677 40 42.6121 40.5222 41.5677 41.5667C40.5232 42.6111 40.001 43.8667 40.001 45.3333C40.001 46.8 40.5232 48.0556 41.5677 49.1C42.6121 50.1444 43.8677 50.6667 45.3343 50.6667Z" fill="#00AB80"/>
</g>
</svg>
