<svg width="95" height="28" viewBox="0 0 95 28" fill="none" xmlns="http://www.w3.org/2000/svg">
<path d="M0.0751896 26.5V1.3H4.21519V26.5H0.0751896ZM2.19919 26.5V22.54H16.3832V26.5H2.19919ZM28.8291 27.04C26.4771 27.04 24.3771 26.5 22.5291 25.42C20.7051 24.316 19.2771 22.78 18.2451 20.812C17.2131 18.82 16.6971 16.516 16.6971 13.9C16.6971 11.284 17.2131 8.992 18.2451 7.024C19.2771 5.032 20.7051 3.496 22.5291 2.416C24.3771 1.312 26.4771 0.759999 28.8291 0.759999C31.2051 0.759999 33.3051 1.312 35.1291 2.416C36.9531 3.496 38.3811 5.032 39.4131 7.024C40.4451 8.992 40.9611 11.284 40.9611 13.9C40.9611 16.516 40.4451 18.82 39.4131 20.812C38.3811 22.78 36.9531 24.316 35.1291 25.42C33.3051 26.5 31.2051 27.04 28.8291 27.04ZM28.8291 23.08C30.3651 23.08 31.7331 22.708 32.9331 21.964C34.1331 21.196 35.0691 20.128 35.7411 18.76C36.4371 17.392 36.7851 15.772 36.7851 13.9C36.7851 12.004 36.4371 10.372 35.7411 9.004C35.0691 7.636 34.1331 6.58 32.9331 5.836C31.7331 5.092 30.3651 4.72 28.8291 4.72C27.2931 4.72 25.9251 5.092 24.7251 5.836C23.5251 6.58 22.5771 7.636 21.8811 9.004C21.2091 10.372 20.8731 12.004 20.8731 13.9C20.8731 15.772 21.2091 17.392 21.8811 18.76C22.5771 20.128 23.5251 21.196 24.7251 21.964C25.9251 22.708 27.2931 23.08 28.8291 23.08ZM55.1726 27.04C52.8686 27.04 50.8166 26.5 49.0166 25.42C47.2406 24.316 45.8486 22.78 44.8406 20.812C43.8326 18.82 43.3286 16.516 43.3286 13.9C43.3286 11.26 43.8326 8.956 44.8406 6.988C45.8726 5.02 47.2886 3.496 49.0886 2.416C50.9126 1.312 53.0006 0.759999 55.3526 0.759999C57.8006 0.759999 59.9486 1.384 61.7966 2.632C63.6446 3.88 65.0126 5.596 65.9006 7.78L62.3006 8.824L61.9046 8.752C61.2566 7.456 60.3686 6.46 59.2406 5.764C58.1126 5.068 56.8286 4.72 55.3886 4.72C53.8766 4.72 52.5206 5.092 51.3206 5.836C50.1206 6.58 49.1846 7.636 48.5126 9.004C47.8406 10.372 47.5046 11.992 47.5046 13.864C47.5046 15.736 47.8526 17.368 48.5486 18.76C49.2446 20.128 50.2046 21.196 51.4286 21.964C52.6526 22.708 54.0446 23.08 55.6046 23.08C56.8046 23.08 57.9446 22.804 59.0246 22.252C60.1286 21.676 61.0166 20.872 61.6886 19.84C62.3606 18.784 62.6966 17.56 62.6966 16.168V15.484L64.1366 16.312H55.7846V12.388H66.1526L66.6566 12.892V26.5H62.8766V21.1H64.2806C63.6566 22.444 62.8646 23.56 61.9046 24.448C60.9686 25.336 59.9126 25.996 58.7366 26.428C57.5846 26.836 56.3966 27.04 55.1726 27.04ZM81.8812 27.04C79.5292 27.04 77.4292 26.5 75.5812 25.42C73.7572 24.316 72.3292 22.78 71.2972 20.812C70.2652 18.82 69.7492 16.516 69.7492 13.9C69.7492 11.284 70.2652 8.992 71.2972 7.024C72.3292 5.032 73.7572 3.496 75.5812 2.416C77.4292 1.312 79.5292 0.759999 81.8812 0.759999C84.2572 0.759999 86.3572 1.312 88.1812 2.416C90.0052 3.496 91.4332 5.032 92.4652 7.024C93.4972 8.992 94.0132 11.284 94.0132 13.9C94.0132 16.516 93.4972 18.82 92.4652 20.812C91.4332 22.78 90.0052 24.316 88.1812 25.42C86.3572 26.5 84.2572 27.04 81.8812 27.04ZM81.8812 23.08C83.4172 23.08 84.7852 22.708 85.9852 21.964C87.1852 21.196 88.1212 20.128 88.7932 18.76C89.4892 17.392 89.8372 15.772 89.8372 13.9C89.8372 12.004 89.4892 10.372 88.7932 9.004C88.1212 7.636 87.1852 6.58 85.9852 5.836C84.7852 5.092 83.4172 4.72 81.8812 4.72C80.3452 4.72 78.9772 5.092 77.7772 5.836C76.5772 6.58 75.6292 7.636 74.9332 9.004C74.2612 10.372 73.9252 12.004 73.9252 13.9C73.9252 15.772 74.2612 17.392 74.9332 18.76C75.6292 20.128 76.5772 21.196 77.7772 21.964C78.9772 22.708 80.3452 23.08 81.8812 23.08Z" fill="url(#paint0_linear_5_19783)"/>
<defs>
<linearGradient id="paint0_linear_5_19783" x1="-3" y1="16" x2="96" y2="16" gradientUnits="userSpaceOnUse">
<stop stop-color="#00AB80"/>
<stop offset="1" stop-color="#C3FF00"/>
</linearGradient>
</defs>
</svg>
