<svg width="64" height="64" viewBox="0 0 64 64" fill="none" xmlns="http://www.w3.org/2000/svg">
<mask id="mask0_2_40974" style="mask-type:alpha" maskUnits="userSpaceOnUse" x="0" y="0" width="64" height="64">
<rect width="64" height="64" fill="#D9D9D9"/>
</mask>
<g mask="url(#mask0_2_40974)">
<path d="M10.5 47L7 43.5L20.25 30.25C21.7083 28.7917 23.4792 28.0625 25.5625 28.0625C27.6458 28.0625 29.4167 28.7917 30.875 30.25L33.75 33.125C34.25 33.625 34.8438 33.875 35.5312 33.875C36.2188 33.875 36.8125 33.625 37.3125 33.125L48.4375 22H42V17H57V32H52V25.5625L40.8125 36.6875C39.3542 38.1458 37.5833 38.875 35.5 38.875C33.4167 38.875 31.6458 38.1458 30.1875 36.6875L27.25 33.75C26.7917 33.2917 26.2083 33.0625 25.5 33.0625C24.7917 33.0625 24.2083 33.2917 23.75 33.75L10.5 47Z" fill="#00AB80"/>
</g>
</svg>
