<svg width="20" height="24" viewBox="0 0 20 24" fill="none" xmlns="http://www.w3.org/2000/svg">
<path d="M10.4 19.2C9.28005 19.2 8.21005 19.375 7.19005 19.725C6.17005 20.075 5.24005 20.6 4.40005 21.3V21.6H16.4V21.3C15.56 20.6 14.63 20.075 13.61 19.725C12.59 19.375 11.52 19.2 10.4 19.2ZM10.4 16.8C11.78 16.8 13.0701 17.01 14.2701 17.43C15.47 17.85 16.58 18.44 17.6 19.2V2.4H3.20005V19.2C4.22005 18.44 5.33005 17.85 6.53005 17.43C7.73005 17.01 9.02005 16.8 10.4 16.8ZM10.4 12C9.90005 12 9.47505 11.825 9.12505 11.475C8.77505 11.125 8.60005 10.7 8.60005 10.2C8.60005 9.7 8.77505 9.275 9.12505 8.925C9.47505 8.575 9.90005 8.4 10.4 8.4C10.9 8.4 11.325 8.575 11.675 8.925C12.025 9.275 12.2 9.7 12.2 10.2C12.2 10.7 12.025 11.125 11.675 11.475C11.325 11.825 10.9 12 10.4 12ZM3.20005 24C2.54005 24 1.97505 23.765 1.50505 23.295C1.03505 22.825 0.800049 22.26 0.800049 21.6V2.4C0.800049 1.74 1.03505 1.175 1.50505 0.705C1.97505 0.235 2.54005 0 3.20005 0H17.6C18.26 0 18.8251 0.235 19.295 0.705C19.7651 1.175 20 1.74 20 2.4V21.6C20 22.26 19.7651 22.825 19.295 23.295C18.8251 23.765 18.26 24 17.6 24H3.20005ZM10.4 14.4C11.56 14.4 12.55 13.99 13.37 13.17C14.1901 12.35 14.6 11.36 14.6 10.2C14.6 9.04 14.1901 8.05 13.37 7.23C12.55 6.41 11.56 6 10.4 6C9.24005 6 8.25005 6.41 7.43005 7.23C6.61005 8.05 6.20005 9.04 6.20005 10.2C6.20005 11.36 6.61005 12.35 7.43005 13.17C8.25005 13.99 9.24005 14.4 10.4 14.4Z" fill="#231F20"/>
</svg>
