<svg width="306" height="336" viewBox="0 0 306 336" fill="none" xmlns="http://www.w3.org/2000/svg">
<path d="M6 12C2.68628 12 -2.89694e-07 9.31371 0 6C2.89694e-07 2.68629 2.68628 -2.03972e-08 6 2.69297e-07L6 6L6 12ZM352 6.00003L352 12L6 12L6 6L6 2.69297e-07L352 3.05176e-05L352 6.00003Z" fill="#D8DBE2"/>
<path d="M270 48C266.686 48 264 45.3137 264 42C264 38.6863 266.686 36 270 36L270 42L270 48ZM352 42L352 48L270 48L270 42L270 36L352 36L352 42Z" fill="url(#paint0_linear_2_38788)"/>
<path d="M115.5 84.0001C112.186 84.0001 109.5 81.3138 109.5 78.0001C109.5 74.6864 112.186 72.0001 115.5 72.0001L115.5 78.0001L115.5 84.0001ZM352 78.0001V84.0001L115.5 84.0001L115.5 78.0001L115.5 72.0001L352 72.0001V78.0001Z" fill="#D8DBE2"/>
<path d="M43 156C39.6863 156 37 153.314 37 150C37 146.686 39.6863 144 43 144L43 150L43 156ZM352 150L352 156L43 156L43 150L43 144L352 144L352 150Z" fill="#D8DBE2"/>
<path d="M171 192C167.686 192 165 189.314 165 186C165 182.686 167.686 180 171 180L171 186L171 192ZM352 186L352 192L171 192L171 186L171 180L352 180L352 186Z" fill="url(#paint1_linear_2_38788)"/>
<path d="M130 228C126.686 228 124 225.314 124 222C124 218.686 126.686 216 130 216L130 222L130 228ZM352 222L352 228L130 228L130 222L130 216L352 216L352 222Z" fill="#D8DBE2"/>
<path d="M196 264C192.686 264 190 261.314 190 258C190 254.686 192.686 252 196 252V258V264ZM352 258V264H196V258V252H352V258Z" fill="url(#paint2_linear_2_38788)"/>
<path d="M26 300C22.6863 300 20 297.314 20 294C20 290.687 22.6863 288 26 288L26 294L26 300ZM352 294L352 300L26 300L26 294L26 288L352 288L352 294Z" fill="#D8DBE2"/>
<path d="M104 336C100.686 336 98 333.314 98 330C98 326.687 100.686 324 104 324L104 330L104 336ZM352 330L352 336L104 336L104 330L104 324L352 324L352 330Z" fill="url(#paint3_linear_2_38788)"/>
<defs>
<linearGradient id="paint0_linear_2_38788" x1="352" y1="42.5" x2="270" y2="42.5" gradientUnits="userSpaceOnUse">
<stop stop-color="#05C677"/>
<stop offset="1" stop-color="#C3FF00"/>
</linearGradient>
<linearGradient id="paint1_linear_2_38788" x1="352" y1="186.5" x2="171" y2="186.5" gradientUnits="userSpaceOnUse">
<stop stop-color="#05C677"/>
<stop offset="1" stop-color="#C3FF00"/>
</linearGradient>
<linearGradient id="paint2_linear_2_38788" x1="352" y1="258.5" x2="196" y2="258.5" gradientUnits="userSpaceOnUse">
<stop stop-color="#05C677"/>
<stop offset="1" stop-color="#C3FF00"/>
</linearGradient>
<linearGradient id="paint3_linear_2_38788" x1="352" y1="330.5" x2="104" y2="330.5" gradientUnits="userSpaceOnUse">
<stop stop-color="#05C677"/>
<stop offset="1" stop-color="#C3FF00"/>
</linearGradient>
</defs>
</svg>
