<svg width="1440" height="394" viewBox="0 0 1440 394" fill="none" xmlns="http://www.w3.org/2000/svg">
<path opacity="0.25" d="M36.0636 297.987C36.0636 297.987 117.376 294.138 157.659 290.049C222.498 283.467 351.43 265.974 351.43 265.974M36.0636 297.987L53.2661 540.235M36.0636 297.987L38.7458 326.504L36.9544 329.042M36.0636 297.987C36.0636 297.987 136.744 292.732 191.039 287.194C242.587 281.937 353.594 265.601 353.594 265.601M53.2661 540.235C53.2661 540.235 143.174 533.574 187.942 529.161C254.192 522.631 386.318 507.405 386.318 507.405M53.2661 540.235L147.816 532.87M53.2661 540.235L49.6929 480.662M386.318 507.405L351.43 265.974M386.318 507.405L369.77 385.421M386.318 507.405L479.377 491.381M351.43 265.974L369.77 385.421M351.43 265.974L353.594 265.601M854.724 70.0784L855.77 63.2108L865.172 66.0501L877.784 61.6492L891.442 50.3807L897.562 47.0976L907.264 38.7394L911.965 40.1591L910.247 56.0593L910.992 60.3893L918.903 54.5687L934.798 56.29L941.663 57.337M854.724 70.0784L850.396 70.8237L856.288 92.1009L858.525 105.091M854.724 70.0784L856.143 65.3758L857.189 58.5081L866.891 50.1498L881.222 29.8487L895.18 7.3825L908.092 -8.21601L930.407 -20.9752L943.692 -34.4088L935.035 -32.9181L931.08 -30.0078L923.469 -35.3848L904.364 -29.8659L896.08 -26.2103L888.097 -33.7523L876.603 -22.8563L872.647 -19.946L862.572 -13.7527L859.662 -17.7101L855.334 -16.9647L852.052 -23.0871L841.231 -21.2237L837.948 -27.346L829.291 -25.8554L828.619 -16.8228L826.082 -18.6151L821.381 -20.0348L817.725 -28.3221L809.069 -26.8315L806.532 -28.6238L810.86 -29.3691L810.114 -33.6991L801.458 -32.2084L796.756 -33.6281L783.772 -31.3921L777.652 -28.1092L776.233 -23.4065L767.577 -21.9159L761.457 -18.6329L758.174 -24.7552L740.488 -23.9389L737.951 -25.7313L724.967 -23.4953L717.356 -28.8723L715.865 -37.5323L709.299 -49.7769L703.853 -55.5265L694.823 -56.2008L698.551 -34.551L610.567 -14.942M858.525 105.091L843.076 118.897M858.525 105.091L852.778 110.539L843.076 118.897M843.076 118.897L842.03 125.765L838.82 133.005L839.938 139.5L846.804 140.547L852.25 146.297L851.577 155.329L850.532 162.197L853.441 166.154L851.65 168.692L854.56 172.649L854.632 186.012L866.944 192.808L875.601 191.318L883.212 196.695L892.242 197.369L902.389 204.538L910.373 212.08L917.611 215.292L926.268 213.802L936.416 220.971L939.698 227.093L942.68 244.413M942.68 244.413L944.845 244.04M942.68 244.413L709.024 298.023M944.845 244.04L948.127 250.163L955.365 253.375L952.155 260.615L956.929 275.397L965.658 287.269L978.643 285.033L984.836 295.113M944.845 244.04L702.532 299.141M984.836 295.113L1112.45 259.763M984.836 295.113L997.148 301.909L998.266 308.405L1012 310.498L1017.14 327.446L1011.77 335.059L1013.26 343.719L1001.77 354.614L985.199 361.926L983.108 375.661L993.255 382.83L996.538 388.953L989.373 399.103L990.864 407.763L979.37 418.659L983.025 426.946L981.234 429.484M1112.45 259.763L1108.79 251.476L1110.21 246.774L1109.09 240.279L1104.39 238.859L1100.74 230.572L1096.34 217.954L1094.84 209.294L1095.89 202.427L1094.77 195.932L1097.61 186.527L1092.53 182.942L1092.46 169.579L1093.51 162.712L1099.25 157.264L1093.81 151.514L1091.57 138.524L1096.2 126.581L1092.92 120.459L1098.29 112.846L1098.59 101.648L1099.26 92.6158L1102.47 85.3755L1098.15 86.1209L1097.1 92.9885L1093.89 100.229L1091.73 100.601L1092.84 107.096L1089.26 112.172L1092.17 116.129L1090.38 118.667L1088.22 119.039L1082.1 122.322L1079.26 131.728L1075.68 136.803L1072.47 144.043L1067.77 142.623L1066.65 136.128L1069.11 124.558L1072.32 117.318L1078.07 111.87L1077.32 107.54M1112.45 259.763L1114.69 272.753L1117.22 274.546L1120.5 280.668L1127.74 283.88L1128.86 290.375L1132.14 296.497L1139.75 301.874M1077.32 107.54L1070.08 104.328L1072.18 90.5928L1070.01 90.9655L1063.89 94.2484L1061.73 94.621L1064.57 85.2158L1058.37 75.1362L1051.13 71.9242L1044.64 73.0421L1043.52 66.5472L1036.66 65.5002M1077.32 107.54L1085.09 74.9942L1089.72 63.0513L1089.64 49.6887L1095.09 55.4384L1096.21 61.9334L1101.21 52.1554L1109.12 46.3348L1112.78 54.6221L1107.4 62.235L1109.94 64.0274L1118.52 49.1741L1121.73 41.9338L1129.64 36.1132L1136.51 37.1602L1146.59 30.9669L1149.79 23.7267L1164.57 18.9531L1178.3 21.0471L1185.91 26.4241L1188 12.6889L1198.82 10.8256L1216.51 10.0093L1222.63 6.72628L1237.78 4.1177L1237.03 -0.212263L1231.96 -3.79695L1228.75 3.44331L1220.09 4.93394L1212.86 1.72191L1203.45 -1.11737L1202.71 -5.44733L1203.75 -12.315L1200.1 -20.6023L1194.35 -15.1543L1186.44 -9.33368L1182.11 -8.58841L1179.58 -10.3807L1173.46 -7.09775L1162.26 -7.39945L1159.65 -22.5544L1151.37 -18.8987L1139.87 -8.00282L1124.35 -7.55919L1112.11 -0.993267L1100.99 12.0677L1097.41 17.1429L1090.54 16.0959L1086.96 21.1712L1079.35 15.7942L1069.65 24.1525L1062.78 23.1055L1046.82 8.02157L1033.46 8.09254L1025.17 11.7482L1013.68 22.6441L1008.91 7.86182L1015.7 -4.45374L1024.66 -17.142L1022.12 -18.9343L1034.36 -25.5002L1027.87 -24.3823L1015.25 -19.9814L1003.76 -9.08543L1000.55 -1.84516L994.431 1.43779L988.011 15.9184L981.518 17.0364L974.353 27.1869L955.621 34.8708L952.411 42.1112L946.664 47.5591L932.634 56.6627L941.663 57.337M1036.66 65.5002L1021.14 65.9438L1012.85 69.5994M1036.66 65.5002L1023.3 65.5711L1012.85 69.5994M1012.85 69.5994L1003.45 66.7601M1003.45 66.7601L974.198 65.1097L949.647 64.879M1003.45 66.7601L949.647 64.879M949.647 64.879L941.663 57.337M1470.99 465.526L1470.61 463.361L1464.12 464.479L1452.18 459.848L1441.66 450.513L1438.75 446.556L1428.6 439.387L1429.28 430.354L1425.99 424.232M1470.99 465.526L1473.15 465.154L1473.9 469.484L1476.06 469.111L1476.81 473.441L1478.97 473.068L1481.88 477.025L1488.37 475.908L1490.91 477.7L1497.78 478.747L1503.15 471.134L1504.57 466.431L1513.97 469.271L1517.55 464.195L1526.21 462.705L1527.63 458.002L1524.72 454.045L1528.67 451.134L1533.37 452.554L1540.91 444.569L1543.45 446.361L1550.99 438.375L1548.45 436.583L1552.03 431.508L1551.66 429.343L1547.33 430.088L1546.59 425.758L1547.63 418.89L1554.05 404.41L1554.73 395.377L1552.19 393.585L1557.56 385.972L1555.03 384.18L1558.24 376.939L1556.74 368.279L1558.54 365.742L1562.86 364.996L1567.94 368.581L1576.59 367.09L1580.18 362.015L1579.06 355.52L1580.85 352.983L1579.73 346.488L1581.15 341.785L1582.94 339.247L1589.81 340.294L1590.48 331.262L1594.81 330.516L1594.44 328.351L1598.02 323.276L1597.27 318.946L1600.48 311.706L1599.36 305.211L1600.78 300.508L1597.87 296.551L1599.66 294.013L1627.87 302.531L1627.8 289.169M1470.99 465.526L1459.19 487.62L1445.54 498.888L1446.65 505.383L1443.07 510.459L1443.82 514.788L1433.74 520.982L1432.7 527.849L1411.13 544.939M1627.8 289.169L1627.05 284.839L1622.35 283.419L1619.44 279.462L1617.28 279.834L1618.7 275.132L1610.41 278.787L1601.01 275.948L1599.22 278.486L1597.8 283.188L1591.31 284.306L1590.26 291.174L1586.31 294.084L1579.81 295.202L1574.37 289.453L1575.49 295.948L1570.11 303.56L1563.62 304.678L1562.2 309.381L1558.99 316.621L1551.83 326.772L1540.11 297.58M1627.8 289.169L1636.46 287.678L1643.32 288.725L1642.27 295.593L1647.35 299.177L1656.01 297.687L1658.92 301.644L1665.41 300.526M1540.11 297.58L1493.99 314.439M1540.11 297.58L1707.28 233.128M1493.99 314.439L1473.85 262.177M1493.99 314.439L1707.28 233.128M1473.85 262.177L1468.11 267.625L1475.34 270.837L1474.3 277.705L1477.58 283.827L1476.91 292.86L1478.77 303.685L1478.84 317.047L1480.34 325.707L1470.63 334.065L1471.75 340.56L1464.59 350.711L1459.51 347.126L1453.77 352.574L1454.51 356.904L1450.56 359.815L1449.88 368.847L1448.46 373.55L1451 375.342L1451.75 379.672L1448.16 384.747L1446 385.12L1445.25 380.79L1440.55 379.37L1436.97 384.446L1435.92 391.313L1436.67 395.643L1440.7 406.096L1436.74 409.006L1437.86 415.501L1425.99 424.232M1473.85 262.177L1447.07 184.309M1425.99 424.232L1420.55 418.482L1411.52 417.808L1405.33 407.728L1397.79 415.714L1396.37 420.416L1389.88 421.534L1388.09 424.072L1383.01 420.487L1374.36 421.978L1371.15 429.218L1366.44 427.799L1358.83 422.422L1348.39 426.45L1341.52 425.403L1332.79 413.531L1328.46 414.276L1323.39 410.692L1319.81 415.767L1312.57 412.555M1670.85 306.276L1674.44 301.2M1670.85 306.276L1667.94 302.318L1665.41 300.526M1670.85 306.276L1671.97 312.771L1668.02 315.681L1664.43 320.756L1667.79 340.241L1676.45 338.751L1681.82 331.138L1682.57 335.468L1690.18 340.845L1699.21 341.519L1703.16 338.609L1710.03 339.656L1712.94 343.613L1721.97 344.287L1728.83 345.334L1724.88 348.245L1727.79 352.202L1729.28 360.862L1722.04 357.65L1722.78 361.98L1712.64 354.81L1708.31 355.556L1690.55 343.009L1681.89 344.5L1680.1 347.038L1686.97 348.085L1691.3 347.339L1699.28 354.881L1709.05 359.886L1715.92 360.933L1721.37 366.682L1730.39 367.357L1737.63 370.569L1740.92 376.691L1731.14 371.687L1730.1 378.554L1735.17 382.139L1728.68 383.257L1711.29 372.876L1712.04 377.206L1729.42 387.587L1735.91 386.469L1740.62 387.889L1741.36 392.219L1746.06 393.638L1742.48 398.714L1728.38 394.455L1727.63 390.125L1716.81 391.988L1713.53 385.866L1712.48 392.733L1709.57 388.776L1692.63 393.922L1693.38 398.252L1708.15 393.479L1713.23 397.063L1726.21 394.827L1727.33 401.322L1738.9 403.789L1740.02 410.284L1743.6 405.209L1750.46 406.256L1747.18 400.133L1762.33 397.525L1767.78 403.274L1769.64 414.099L1767.48 414.472L1768.22 418.802M1674.44 301.2L1666.83 295.823L1665.41 300.526M1674.44 301.2L1673.02 305.903L1673.76 310.233L1672.35 314.936L1673.09 319.266L1669.88 326.506L1671 333.001L1675.33 332.256L1674.21 325.761L1678.91 327.18L1680.7 324.643L1686.15 330.392L1690.85 331.812L1687.57 325.69L1692.64 329.274L1695.55 333.232L1701.67 329.949L1706.37 331.368L1708.91 333.161L1712.86 330.25L1718.31 336L1719.73 331.297L1712.12 325.92L1709.95 326.293L1702.72 323.081L1698.02 321.661L1692.57 315.912L1691.08 307.252L1696.9 315.166L1701.97 318.751L1711.37 321.59L1711 319.425L1700.85 312.256L1699.73 305.761L1694.66 302.176L1692.8 291.352L1688.09 289.932L1692.05 287.022L1685.18 285.975L1690.56 278.362L1680.78 273.357L1684.74 270.447L1687.28 272.239L1686.53 267.909L1690.11 262.834L1687.58 261.042L1691.53 258.131L1694.44 262.089L1692.95 253.429L1695.86 257.386L1699.82 254.476L1696.91 250.518L1698.32 245.816L1701.91 240.741L1705.19 246.863L1708.77 241.788L1709.52 246.118L1705.94 251.193L1712.8 252.24L1711.01 254.777L1702.73 258.433L1699.52 265.673L1701.01 274.333L1704.96 271.423L1707.13 271.05L1706.45 280.083L1704.66 282.621L1700.33 283.366L1701.08 287.696L1708.99 281.875L1711.9 285.833L1710.48 290.535L1714.81 289.79L1713.39 294.492L1711.6 297.03L1718.84 300.242L1722.79 297.332L1725.7 301.289L1713.09 305.69L1716 309.647L1714.58 314.35L1723.61 315.024L1729.06 320.774L1727.94 314.279L1732.27 313.534L1735.48 306.293L1737.34 317.118L1739.51 316.746L1738.09 321.448L1742.42 320.703L1745.33 324.66L1744.28 331.528L1754.73 327.5M-231.755 243.791L-230.636 250.286L-321.976 250.41M-231.755 243.791L-229.963 241.253L-230.709 236.923L-236.528 229.009L-238.446 75.5253M-231.755 243.791L-227.354 256.408M-238.446 75.5253C-238.446 75.5253 -364.707 75.387 -428.024 74.2354C-446.669 73.8963 -484.332 71.0531 -484.332 71.0531L-485.751 75.7557L-481.722 86.208L-475.23 85.09L-473.739 93.75L-474.412 102.783L-478.74 103.528L-484.56 95.6133L-492.543 88.0713L-496.499 90.9816L-491.798 92.4013L-486.724 95.9859L-490.679 98.8962L-497.917 95.6842L-504.783 94.6372L-501.5 100.76L-489.934 103.226L-486.351 98.1509L-480.904 103.901L-485.905 113.678L-476.058 132.045L-471.357 133.465L-474.639 127.343L-480.832 117.263L-479.786 110.396L-475.457 109.65L-470.756 111.07L-468.147 126.225L-463.446 127.644L-466.656 134.885L-472.03 142.498L-469.793 155.488L-470.093 166.685L-473.303 173.925L-478.004 172.506L-485.169 182.656L-492.035 181.609L-495.99 184.52L-502.855 183.473L-499.646 176.232L-494.271 168.619L-489.57 170.039L-485.988 164.964L-480.541 170.713L-480.614 157.351L-485.315 155.931L-484.642 146.899C-486.932 147.293 -478.149 145.781 -478.149 145.781L-477.104 138.913L-490.761 150.182L-494.717 153.092L-502.255 161.077L-497.181 164.662L-492.853 163.917L-496.808 166.827L-507.629 168.69L-506.211 163.988L-493.671 146.224L-494.79 139.729L-490.461 138.984L-489.716 143.314L-484.342 135.701L-490.907 123.456L-489.788 129.951L-497.399 124.574L-499.191 127.112L-506.801 121.735L-513.294 122.853L-538.591 118.292L-547.993 115.453L-553.067 111.868L-569.707 105.817L-572.172 117.387L-569.935 130.377L-561.951 137.919L-558.296 146.206L-557.477 163.899L-552.031 169.649L-551.958 183.011L-545.466 181.893L-544.72 186.223L-535.318 189.063L-545.766 193.091L-547.184 197.793L-549.721 196.001L-548.603 202.496L-539.946 201.005L-534.499 206.755L-540.992 207.873L-541.665 216.906L-538.382 223.028L-544.875 224.146L-547.785 220.189L-548.458 229.221L-544.129 228.476L-539.428 229.896L-530.771 228.405L-528.235 230.197L-521.742 229.079L-518.46 235.202L-513.758 236.621L-507.266 235.503M-238.446 75.5253L-196.209 74.9397M-507.266 235.503L-499.655 240.88L-493.463 250.96L-493.017 266.488L-492.272 270.817L-476.377 272.539L-469.139 275.751M-507.266 235.503L-513.386 238.786L-519.878 239.904L-523.161 233.782L-531.444 237.438L-536.146 236.018L-537.564 240.721L-545.175 235.344L-543.311 246.169L-546.894 251.244L-545.402 259.904L-542.493 263.861L-546.075 268.936L-542.42 277.224L-546.748 277.969L-553.396 317.01L-554.441 323.877L-551.532 327.835L-554.369 337.24L-553.623 341.57L-557.206 346.645L-558.179 366.875L-560.643 378.446L-557.733 382.403L-561.689 385.313L-566.317 397.256L-561.989 396.511L-560.871 403.006L-565.572 401.586L-568.782 408.826L-571.691 404.869L-575.574 421.142L-579.83 435.25L-576.175 443.537L-576.029 470.262L-574.538 478.922L-568.719 486.837M-469.139 275.751L-454.735 268.812L-448.616 265.529M-469.139 275.751L-448.616 265.529M-448.616 265.529L-435.258 265.458L-423.692 267.925L-420.409 274.047L-412.125 270.392L-409.588 272.184L-394.812 267.41L-383.618 267.712L-373.17 263.684L-354.066 258.165L-347.946 254.882L-327.723 255.858L-321.976 250.41M-321.976 250.41L-228.472 249.913L-227.354 256.408M1686.66 -106.616L1760.84 -141.681L1763.38 -139.889M1686.66 -106.616L1688.15 -97.9558L1690.69 -96.1635L1692.55 -85.3385L1695.46 -81.3812L1699.12 -73.0939L1704.56 -67.3442L1703.15 -62.6416L1705.01 -51.8166L1707.17 -52.1893L1710.46 -46.067L1712.99 -44.2747L1713.37 -42.1097L1715.9 -40.3173L1718.14 -27.3274L1721.72 -32.4028L1726.8 -28.8181L1727.54 -24.4881L1742.91 12.991L1745.45 14.7834M1686.66 -106.616L1628.67 -81.0263L1622.18 -79.9083L1612.85 -69.3851L1609.64 -62.1448L1599.64 -42.589L1598.22 -37.8863L1599.34 -31.3914L1581.43 -6.01489L1583.96 -4.2226L1594.78 -6.08589L1597.32 -4.29353L1595.9 0.409101L1592.69 7.64939L1590.53 8.02201L1595.6 11.6067L1596.35 15.9367L1601.05 17.3563L1599.26 19.8939L1600 24.2239L1596.05 27.1342L1591.72 27.8796L1584.93 40.1952L1583.51 44.8979L1575.6 50.7184L1573.81 53.2561L1560.82 55.4921L1548.95 64.223L1544.63 64.9683L1539.55 61.3836L1520.45 66.9026L1516.49 69.8128L1507.83 71.3035L1483.73 86.6004L1486.64 90.5576L1487.76 97.0526L1496.41 95.562L1497.16 99.892L1495.74 104.595L1500.81 108.179L1501.56 112.509L1498.35 119.749L1495.51 129.155L1487.97 137.14L1484.77 144.381L1475.81 157.069M1763.38 -139.889L1766.29 -135.932L1763.45 -126.526L1771.44 -118.984L1769.64 -116.447L1770.39 -112.117L1765.76 -100.174L1763.97 -97.6362L1759.64 -96.891L1758.22 -92.1883L1761.51 -86.0661L1764.12 -70.9111L1762.32 -68.3734L1763.82 -59.7135L1762.4 -55.0109L1763.52 -48.5159L1761.72 -45.9782L1766.12 -33.361L1768.66 -31.5687L1767.99 -22.5361L1770.9 -18.5788L1772.02 -12.0838L1770.23 -9.54618L1771.34 -3.05123L1781.12 1.95321M1763.38 -139.889L1762.26 -146.384L1763.31 -153.252L1762.56 -157.582L1764.35 -160.119L1771.22 -159.072L1772.64 -163.775M1781.12 1.95321L1745.45 14.7834M1781.12 1.95321L1824.7 -16.6976L1830.82 -19.9806L1833.66 -29.3859L1835.82 -29.7585M1745.45 14.7834L1750.74 58.4558L1752.9 58.0831M1768.22 418.802L1504.11 515.552M1768.22 418.802L1778.37 425.971L1789.26 437.47L1776.95 430.674L1780.23 436.796L1768.29 432.164L1764.34 435.075L1776.28 439.706L1772.32 442.617L1763.29 441.942L1770.9 447.319L1756.8 443.06L1757.55 447.39L1764.78 450.602L1759.04 456.05L1750.38 457.541L1746.73 449.254L1745.23 440.594L1740.91 441.339L1743.14 454.329L1748.59 460.079L1749.71 466.574L1760.16 462.545L1763.74 457.47L1768.81 461.055L1774.93 457.772L1778.14 450.531L1783.59 456.281L1782.54 463.149L1787.24 464.568L1783.66 469.644L1790.15 468.526L1790.83 459.493L1787.54 453.371L1794.04 452.253L1795.46 447.55L1801.28 455.465L1803.51 468.455L1798.81 467.035L1797.02 469.573L1794.93 483.308L1791.35 488.383L1782.69 489.874L1777.62 486.289L1774.03 491.364L1771.12 487.407L1774.7 482.332L1762.09 486.733L1767.54 492.482L1754.55 494.718L1745.53 494.044L1750.97 499.794L1764.33 499.723L1777.31 497.487L1778.06 501.817L1770.15 507.637L1777.01 508.684L1772.01 518.462L1765.52 519.58L1751.42 515.321L1761.94 524.656L1770.97 525.33L1775.3 524.585L1778.51 517.344L1783.58 520.929L1793.28 512.571L1787.61 531.381L1780.37 528.169L1774.62 533.617L1764.92 541.975L1757.68 538.764L1758.8 545.258L1753.8 555.036L1750.14 546.749L1745.82 547.494L1748.73 551.452L1746.93 553.989L1752.01 557.574L1744.47 565.56L1739.84 577.503L1737.38 589.073L1738.5 595.568L1732.68 587.653L1736.03 607.138L1718.72 610.119L1715.14 615.194L1709.02 618.477M1411.13 544.939L1503.74 513.387M1411.13 544.939L1407.54 550.014L1211.8 603.783L1198.81 606.019L1202.09 612.142L1202.84 616.472L1136.87 634.519M1503.74 513.387L1504.11 515.552M1503.74 513.387L1506.35 528.542M1504.11 515.552L1506.35 528.542M1754.73 327.5L1755.47 331.83L1753.68 334.367L1756.59 338.325L1753.38 345.565L1752.34 352.433L1753.83 361.093L1753.16 370.125L1756.81 378.412L1759.35 380.205L1760.39 373.337L1758.16 360.347L1759.2 353.48L1766.07 354.527L1763.83 341.537L1766.67 332.131L1763.76 328.174L1762.64 321.679L1754.73 327.5ZM1754.73 327.5L1764.8 321.306L1763.69 314.811L1767.64 311.901L1764.36 305.779L1770.48 302.496L1769.73 298.166L1764.29 292.416M-91.7954 487.192L-77.1394 792.296M-91.7954 487.192L49.6929 480.662M-91.7954 487.192C-91.7954 487.192 -183.572 491.166 -229.646 492.07C-276.106 492.982 -371.562 493.013 -371.562 493.013M-91.7954 487.192L-75.8029 838.879M-91.7954 487.192L-231.493 491.185M-77.1394 792.296C-77.1394 792.296 -9.43557 790.163 24.23 788.014C72.8508 784.91 169.72 776.538 169.72 776.538M-77.1394 792.296L-75.8029 838.879M-77.1394 792.296C-77.1394 792.296 -16.4566 790.611 13.6984 788.686C65.8298 785.358 169.72 776.538 169.72 776.538M169.72 776.538L147.816 532.87M169.72 776.538C169.72 776.538 249.32 769.778 288.933 765.316C349.144 758.533 469.191 742.803 469.191 742.803L474.411 773.113M169.72 776.538L200.861 1125.62M169.72 776.538C169.72 776.538 253.229 769.437 302.371 763.5C368.923 755.459 516.803 734.605 516.803 734.605M147.816 532.87C147.816 532.87 274.486 521.938 327.514 515.302C385.006 508.108 479.377 491.381 479.377 491.381M49.6929 480.662L36.9544 329.042M470.082 773.858L619.782 750.31M470.082 773.858L508.772 1050.3L323.327 1073.32L324.446 1079.81L332.057 1085.19M470.082 773.858L474.411 773.113M619.782 750.31L639.913 867.219L646.406 866.101L661.627 876.855L667.747 873.572L672.076 872.827L673.494 868.124L683.642 875.294L684.76 881.789L695.581 879.925L709.312 882.019L715.431 878.736L723.042 884.113L728.789 878.665L741.774 876.429L742.892 882.924L749.757 883.971L755.577 891.886L766.698 878.825L769.981 884.947L774.309 884.202L781.547 887.414L789.458 881.593L795.65 891.673L801.697 875.027L813.637 879.659L819.756 876.376L824.83 879.961L838.561 882.055L842.889 881.31L843.935 874.442L854.383 870.414L858.711 869.668L870.95 863.102L879.98 863.777L887.891 857.956L901.621 860.05L909.232 865.427L916.47 868.639L929.828 868.568M619.782 750.31L474.411 773.113M929.828 868.568L939.23 871.408L941.022 868.87L951.842 867.007L954.379 868.799L959.971 901.274M929.828 868.568L906.86 761.064L885.228 700.143M959.971 901.274L962.136 900.901M959.971 901.274L1105.64 867.273M962.136 900.901L975.111 963.313L982.722 968.69L990.705 976.232L992.197 984.892L997.271 988.477L997.643 990.641L1002.72 994.226L1003.84 1000.72L1011.45 1006.1L1012.57 1012.59L1015.1 1014.39L1013.31 1016.92L1015.55 1029.91L1014.5 1036.78L1011.66 1046.19L1012.78 1052.68L1011.36 1057.38L1017.18 1065.3L1016.51 1074.33M962.136 900.901L1105.64 867.273M1016.51 1074.33L1012.93 1079.41L1008.67 1093.51L1014.12 1099.26L1005.46 1100.75L987.85 1114.93L979.193 1116.42L968.745 1120.45L971.955 1113.21L973 1106.34L968.3 1104.92L964.344 1107.83L960.761 1112.91L951.732 1112.24L955.387 1120.52L960.834 1126.27L965.908 1129.86L964.489 1134.56L957.324 1144.71L952.623 1143.29L956.651 1153.74L945.53 1166.8L934.036 1177.7L919.26 1182.47L917.841 1187.18L907.021 1189.04L906.275 1184.71L900.528 1190.16L890.38 1182.99L894.409 1193.44L887.543 1192.39L882.469 1188.81L880.678 1191.35L886.497 1199.26L891.199 1200.68L887.616 1205.76L895.9 1202.1L896.645 1206.43L886.943 1214.79L876.422 1205.45L875.377 1212.32L877.241 1223.15L875.822 1227.85L872.167 1219.56L860.673 1230.46L859.254 1235.16L864.328 1238.75L870.075 1233.3L863.655 1247.78L845.969 1248.59L844.551 1253.3L851.416 1254.34L861.191 1259.35L856.262 1282.49L851.188 1278.9L845.442 1284.35L835.294 1277.18L838.949 1285.47L837.158 1288.01L839.695 1289.8L850.888 1290.1L854.844 1287.19L855.289 1302.72L853.498 1305.26L855.735 1318.25L860.063 1317.5L864.464 1330.12L863.045 1334.82L871.402 1344.53L877.594 1354.61L882.295 1356.03L881.623 1365.06L878.04 1370.14L869.01 1369.46L858.862 1362.29L828.564 1367.51L816.252 1360.71L802.895 1360.78L792.747 1353.61L777.598 1356.22L776.479 1349.73L771.778 1348.31L764.468 1331.73L756.484 1324.19L751.41 1320.61L749.546 1309.78L744.099 1304.03L745.518 1299.33L744.399 1292.83L741.117 1286.71L731.714 1283.87L719.402 1277.08L716.12 1270.95L705.227 1259.45L697.988 1256.24L692.542 1250.49L685.604 1236.08L677.62 1228.54L674.338 1222.42L666.354 1214.88L664.49 1204.05L657.252 1200.84L656.506 1196.51L639.866 1190.46L639.12 1186.13L630.091 1185.45L628.972 1178.96L624.644 1179.71L616.288 1170L601.139 1172.61L587.781 1172.68L576.96 1174.54L567.558 1171.7L564.348 1178.94L549.572 1183.72L543.152 1198.2L542.852 1209.39L539.642 1216.63L530.685 1229.32L531.43 1233.65L517.7 1231.56L510.089 1226.18L501.433 1227.67L493.449 1220.13L482.255 1219.83L467.034 1209.07L460.168 1208.03L452.557 1202.65L448.902 1194.36L443.083 1186.45L439.8 1180.33L440.846 1173.46L429.579 1159.79L428.461 1153.3L420.105 1143.59L407.793 1136.8L398.763 1136.12L385.706 1124.99L384.96 1120.66L375.185 1115.66L365.037 1108.49L350.561 1102.07L342.95 1096.69L341.459 1088.03L332.057 1085.19M1016.51 1074.33L1019.12 1089.49L1013 1092.77L1015.91 1096.73L1020.24 1095.98L1045.09 1085.01L1058.45 1084.94L1079.79 1092.41L1101.43 1088.69L1108.97 1080.7L1101.36 1075.32L1113.23 1066.59L1119.72 1065.48L1120.84 1071.97L1131.28 1067.94L1134.57 1074.06L1136.36 1071.53L1139.27 1075.48L1141.8 1077.28L1150.83 1077.95L1154.04 1070.71L1156.58 1072.5L1155.54 1079.37L1163.15 1084.75L1166.06 1088.7L1157.03 1088.03L1157.77 1092.36L1168.97 1092.66L1175.46 1091.54L1190.98 1091.1L1191.65 1082.07L1195.61 1079.16L1201.73 1075.87L1211.13 1078.71L1211.88 1083.04L1216.95 1086.63L1220.16 1079.39L1217.92 1066.4L1210.68 1063.19L1207.78 1059.23L1214.27 1058.11L1228 1060.21L1235.98 1067.75L1242.1 1064.46L1245.01 1068.42L1254.04 1069.1L1261.65 1074.47L1263.44 1071.94L1271.05 1077.31L1276.43 1069.7L1265.91 1060.36L1247.85 1059.02L1230.84 1050.8L1234.79 1047.89L1231.51 1041.77L1238.37 1042.81L1241.21 1033.41L1247.7 1032.29L1238.97 1020.42L1236.14 1029.82L1232.55 1034.9L1227.48 1031.32L1223.15 1032.06L1220.24 1028.1L1226.36 1024.82L1227.78 1020.12L1219.12 1021.61L1207.63 1032.5L1189.57 1031.16L1186.29 1025.03L1194.87 1010.18L1203.53 1008.69L1211.14 1014.07L1222.33 1014.37L1228.83 1013.25M332.057 1085.19L242.208 1093.97L244.89 1122.49L200.861 1125.62M1118.65 735.741L1409.17 650.047M1118.65 735.741L1121.48 726.336L1127.98 725.218L1122.16 717.303L1123.2 710.436L1123.88 701.403L1128.2 700.658L1127.46 696.328L1123.8 688.04L1133.51 679.682L1130.97 677.89L1130.22 673.56L1136.72 672.442L1134.18 670.649L1129.48 669.23M1118.65 735.741L1119.77 742.236L1114.02 747.684L1115.14 754.179L1108.64 755.297L1112 774.782L1106.25 780.23L1107 784.56L1099.83 794.71L1104.91 798.295L1103.12 800.833L1095.2 806.653L1099.23 817.106L1094.23 826.883L1099.31 830.468L1095.72 835.543L1100.8 839.128L1102.66 849.953L1108.11 855.703L1104.52 860.778L1105.64 867.273M1118.65 735.741L1220.66 707.029M1409.17 650.047L1406.56 634.892L1408.35 632.354L1417.38 633.029L1417.31 619.666L1428.43 606.605L1439.25 604.742L1451.42 584.813L1460.07 583.323L1460.37 572.125L1464.7 571.38L1465.75 564.512L1471.87 561.229L1474.78 565.187L1479.11 564.441L1481.57 552.871L1492.02 548.843L1496.72 550.262L1500.6 533.99L1504.19 528.914L1506.35 528.542M1409.17 650.047L1468.28 630.953M1136.87 634.519L1135.08 637.057L1130 633.472L1130.75 637.802L1134.41 646.089L1130.08 646.835L1133.36 652.957L1129.03 653.702L1134.48 659.452L1130.52 662.362L1129.48 669.23M1136.87 634.519L1137.92 627.651L1137.54 625.486L1144.78 628.698L1146.87 614.963L1143.96 611.006L1144.64 601.973L1140.31 602.719M1129.48 669.23L1099.92 678.777L1099.18 674.447L1100.97 671.909L1109.18 654.891L1108.44 650.561L1100.83 645.184L884.855 697.978M1468.28 630.953L1482.31 621.849L1484.47 621.476L1485.89 616.774M1468.28 630.953L1465.07 638.193L1460.81 652.301M1468.28 630.953L1345.74 669.887M1460.81 652.301L1472.38 654.767M1460.81 652.301L1465.51 653.72L1472.38 654.767M1472.38 654.767L1474.91 656.56L1482.15 659.772L1490.44 656.116L1491.55 662.611L1498.79 665.823L1502.07 671.945L1504.61 673.738L1511.85 676.95L1515.13 683.072L1519.46 682.327L1522.37 686.284L1533.94 688.751L1542.29 698.458L1548.79 697.34L1556.4 702.717L1557.14 707.047L1564.01 708.094L1564.75 712.424L1569.45 713.843L1570.2 718.173L1576.69 717.055L1588.63 721.687L1589.38 726.017L1594.82 731.766L1598.48 740.054L1601.39 744.011L1607.88 742.893L1610.79 746.85L1618.78 754.392L1620.27 763.052L1625.71 768.802L1627.5 766.264M1627.5 766.264L1632.21 767.684L1639.07 768.731L1635.49 773.806L1636.23 778.136L1627.2 777.462L1625.79 782.165L1632.65 783.212L1631.23 787.914L1622.58 789.405L1627.28 790.824L1625.86 795.527L1630.93 799.112L1622.65 802.767L1627.72 806.352L1633.84 803.069L1628.47 810.682L1631.38 814.639L1620.18 814.338L1620.93 818.668L1632.12 818.969L1629.29 828.375L1628.17 821.88L1623.84 822.625L1625.33 831.285L1628.24 835.242L1626.82 839.945L1631.15 839.2L1628.31 848.605L1633.76 854.354L1620.78 856.59M1627.5 766.264L1636.16 764.774L1637.21 757.906L1636.09 751.411L1641.16 754.996L1632.81 745.289L1626.99 737.374L1628.78 734.837L1637.13 744.544L1641.84 745.963L1638.18 737.676L1643.25 741.261L1646.54 747.383L1650.12 742.308L1646.84 736.185L1637.43 733.346L1645.72 729.69L1652.58 730.737L1656.17 725.662L1655.42 721.332L1661.91 720.214L1667.66 714.766L1671.24 709.691L1666.17 706.106L1665.42 701.776L1669.75 701.031L1672.66 704.988L1679.83 694.838L1678.34 686.178L1682.29 683.267L1686.99 684.687L1690.2 677.447L1687.29 673.489L1695.2 667.669L1688.34 666.622L1687.22 660.127L1690.43 652.887L1692.29 663.712L1695.43 643.109L1700.06 631.166L1709.02 618.477M1709.02 618.477L1638.43 583.82L1583.65 602.169L1579.99 593.882L1570.22 588.877L1566.64 593.953L1563.35 587.83L1499.92 607.67M1499.92 607.67L1492.01 613.491L1485.89 616.774M1499.92 607.67L1485.89 616.774M369.77 385.421C369.77 385.421 435.632 377.458 468.377 372.395C520.283 364.368 623.722 346.149 623.722 346.149M369.77 385.421C369.77 385.421 433.057 377.857 464.515 372.992C517.708 364.766 623.722 346.149 623.722 346.149M353.594 265.601L346.438 211.104M353.594 265.601L320.197 32.8294M346.438 211.104C346.438 211.104 467.379 192.507 528.6 181.965C577.03 173.626 675.39 154.459 675.39 154.459M346.438 211.104C346.438 211.104 457.577 194.195 513.451 184.574C567.228 175.314 675.39 154.459 675.39 154.459M346.438 211.104L320.197 32.8294M675.39 154.459L674.344 161.327L671.134 168.567L665.388 174.015L674.117 185.887L683.146 186.562L688.593 192.311L709.024 298.023M675.39 154.459L669.498 133.182L661.514 125.64L657.859 117.353L653.085 102.571L652.339 98.2408L648.311 87.7885L645.329 70.4686M709.024 298.023L702.532 299.141M702.532 299.141L703.277 303.471L708.351 307.056L707.306 313.923L712.38 317.508L713.198 335.2L709.988 342.441L719.09 356.478M719.09 356.478L714.762 357.223M719.09 356.478L723.418 355.732M714.762 357.223L709.315 351.473L708.569 347.143L702.077 348.261L699.54 346.469L692.675 345.422L686.182 346.54L678.571 341.163L668.123 345.191L652.974 347.8L649.391 352.875L642.899 353.993L623.722 346.149M714.762 357.223L723.418 355.732M1826.04 29.8851L1839.91 58.7043M1826.04 29.8851L1842.23 20.4089L1845.52 26.5311L1847.68 26.1585M1826.04 29.8851L1825.67 27.7201M1839.91 58.7043L1841.41 67.3643M1839.91 58.7043L1825.67 27.7201M1841.41 67.3643L1845.36 64.4539L1848.94 59.3786L1855.44 58.2607L1853.94 49.6007L1851.03 45.6434L1852.45 40.9407L1848.13 41.686L1849.54 36.9835L1846.63 33.0261L1848.43 30.4885L1847.68 26.1585M1841.41 67.3643L1837.08 68.1096L1833.12 71.0198L1827 74.3028L1823.05 77.2131L1816.18 76.1661L1819.09 80.1235L1808.64 84.1517L1798.57 90.345L1794.24 91.0903L1791.03 98.3306L1784.91 101.614L1776.33 116.467L1769.83 117.585L1765.13 116.165M1847.68 26.1585L1849.84 25.7858L1850.96 32.2808L1857.83 33.3278L1858.87 26.4602L1861.04 26.0875L1861.78 30.4175L1860.36 35.1201L1864.02 43.4074L1866.56 45.1998L1867.98 40.4971L1869.77 37.9594L1872.3 39.7518L1873.72 35.0492L1872.98 30.7192L1875.14 30.3465L1878.72 25.2713L1877.98 20.9413L1882.31 20.1959L1885.22 24.1532L1886.33 30.6481L1890.66 29.9029L1892.08 25.2002L1893.87 22.6626L1899.99 19.3796L1911.86 10.6488L1910.74 4.15378L1908.2 2.36139L1905.29 -1.59588L1899.85 -7.34551L1897.68 -6.97288L1900.59 -3.0155C1900.59 -3.0155 1906.4 0.84818 1908.23 2.96635C1909.19 4.08383 1908.95 6.69137 1908.95 6.69137L1902.83 9.97438L1899.25 15.0496L1886.26 17.2856L1883.35 13.3283L1882.23 6.8333L1878.28 9.74361L1871.41 8.69667L1872.46 1.82908L1862.31 -5.34026L1858.36 -2.42995L1856.56 0.107688L1851.86 -1.312L1849.33 -3.10431L1848.58 -7.43429L1850.37 -9.97196L1850 -12.1369L1853.95 -15.0472L1851.42 -16.8395L1850.67 -21.1695L1858.96 -24.8252L1860.37 -29.5278L1856.42 -26.6175L1851.72 -28.0372L1849.18 -29.8295L1848.43 -34.1595L1844.11 -33.4142L1845.53 -38.1168M1447.07 184.309L1475.81 157.069M1447.07 184.309L1416.18 211.921L1404.01 231.849L1397.89 235.132L1389.23 236.623L1381.32 242.444L1375.2 245.727L1373.78 250.429L1360.43 250.5L1356.1 251.246L1352.14 254.156L1345.28 253.109L1357.14 244.378L1352.81 245.123L1348.86 248.034L1337.29 245.567L1326.1 245.265L1321.4 243.846M1707.28 233.128L1708.33 226.26L1711.91 221.185M1707.28 233.128L1739.43 303.383L1764.29 292.416M1711.91 221.185L1722.73 219.321L1724.15 214.619L1729.9 209.171M1711.91 221.185L1720.57 219.694L1719.52 226.562L1715.94 231.637L1716.68 235.967L1719.22 237.759L1720.34 244.254L1735.19 252.843L1736.68 261.503L1746.08 264.343L1746.83 268.672L1754.06 271.884L1763.47 274.724L1759.51 277.634L1760.26 281.964L1758.84 286.667L1764.96 283.384L1767.87 287.341L1768.24 289.506L1764.29 292.416M1729.9 209.171L1729.15 204.841L1742.06 189.242L1741.32 184.912L1726.84 178.488L1722.51 179.234L1718.86 170.946L1712.74 174.229L1709.08 165.942L1710.13 159.074L1711.55 154.372L1706.47 150.787L1705.73 146.457L1709.31 141.382L1712.15 131.977L1711.4 127.647L1716.78 120.034M1729.9 209.171L1726.31 214.246L1723.1 221.486L1720.94 221.859L1721.68 226.189L1720.64 233.057L1723.18 234.849L1724.29 241.344L1731.53 244.556L1735.86 243.811L1738.77 247.768L1745.26 246.65L1748.17 250.607L1752.13 247.697L1760.78 246.206L1763.39 261.361L1766.98 256.286L1766.23 251.956L1768.02 249.418L1767.65 247.253L1770.49 237.848L1765.79 236.428L1769.74 233.518L1771.16 228.815L1775.49 228.07L1772.95 226.278L1772.21 221.948L1776.53 221.202L1771.09 215.453L1775.42 214.707L1777.21 212.17L1777.88 203.137L1774.97 199.18L1776.76 196.642L1774.53 183.652L1774.83 172.455L1770.8 162.002L1766.47 162.748L1757.44 162.073L1754.53 158.116L1755.58 151.249L1756.99 146.546L1760.95 143.636L1759.83 137.141L1760.5 128.108L1757.97 126.316M1716.78 120.034L1711.7 116.449L1698.72 118.685L1693.27 112.935L1691.41 102.11L1684.17 98.8984L1680.21 101.809L1677.3 97.8513L1670.44 96.8044L1480.58 171.851L1475.81 157.069M1716.78 120.034L1757.97 126.316M-231.493 491.185L-232.819 379.954L-229.982 370.549L-231.101 364.054L-227.518 358.979L-232.592 355.394L-241.621 354.72L-241.694 341.357L-233.11 326.504L-225.945 316.353L-224.899 309.486L-218.479 295.005L-217.06 290.303L-208.477 275.449L-212.505 264.997L-227.354 256.408M-231.493 491.185L-371.562 493.013M-568.719 486.837L-371.562 493.013M-568.719 486.837L-567.6 493.332L-570.81 500.572L-565.736 504.157L-562.381 523.642L-568.055 542.452L-567.31 546.782L-567.982 555.815L-565.445 557.607L-571.565 560.89L-572.984 565.593L-576.939 568.503L-581.568 580.446L-579.704 591.271L-568.81 602.77L-557.171 618.599L-553.816 638.084L-558.444 650.027L-555.162 656.15L-550.388 670.932L-554.344 673.842L-534.721 697.213L-524.573 704.383L-523.082 713.043L-517.635 718.792L-511.816 726.707L-511.07 731.037L-519.054 723.495L-518.308 727.825L-507.415 739.324L-505.25 738.951L-497.64 744.329L-496.294 726.263L-490.174 722.98L-480.026 730.15L-472.115 724.329L-469.205 728.286L-464.504 729.706L-458.012 728.588L-451.147 729.635L-443.536 735.012L-445.7 735.385L-452.938 732.173L-456.893 735.083L-463.759 734.036L-475.325 731.569L-479.281 734.48L-484.354 730.895L-490.101 736.343L-489.729 738.508L-486.819 742.465L-486.073 746.795L-480.999 750.38L-478.39 765.535L-473.689 766.954L-475.48 769.492L-482.718 766.28L-490.702 758.738L-492.566 747.913L-496.894 748.659L-498.313 753.361L-495.403 757.318L-496.448 764.186L-492.793 772.473L-493.466 781.506L-484.737 793.378L-477.126 798.755L-468.096 799.429L-462.277 807.344L-462.95 816.376L-468.697 821.824L-470.861 822.197L-467.878 839.517L-464.969 843.474L-457.358 848.851L-453.702 857.139L-449.001 858.558L-447.51 867.218L-442.063 872.968L-440.945 879.463L-431.543 882.302L-427.887 890.589L-418.485 893.429L-417.367 899.924L-420.95 904.999L-418.04 908.956L-408.638 911.796L-407.519 918.291L-408.192 927.323L-405.582 942.478L-409.165 947.553L-402.3 948.6L-399.017 954.723L-383.868 952.114L-380.958 956.071L-374.466 954.953L-369.392 958.538L-362.527 959.585L-356.407 956.302L-341.558 964.891L-335.366 974.971L-318.726 981.022L-314.024 982.442L-301.04 980.206L-293.056 987.748L-293.356 998.945L-288.655 1000.36L-284.699 997.455L-277.834 998.502L-267.313 1007.84L-251.719 1020.75L-244.108 1026.13L-237.543 1038.38L-233.515 1048.83L-234.188 1057.86L-231.278 1061.82L-226.204 1065.4L-225.086 1071.9L-102.402 1059.69M-371.562 493.013L-373.828 673.967L-102.082 919.196M877.471 668.041C877.471 668.041 739.042 697.095 669.455 709.457C602.825 721.294 468.819 740.638 468.819 740.638L474.411 773.113M877.471 668.041L885.228 700.143M877.471 668.041L850.402 536.722L845.701 535.302L839.208 536.42L833.762 530.67L833.016 526.34L825.778 523.128L820.704 519.544L823.914 512.304L825.333 507.601L829.288 504.691L826.006 498.568L821.304 497.149L817.349 500.059L805.41 495.427M877.471 668.041L884.855 697.978M877.471 668.041C877.471 668.041 754.638 695.178 692.848 706.582C634.415 717.366 516.803 734.605 516.803 734.605M885.228 700.143L884.855 697.978M1262.67 265.105L1308.98 417.63M1262.67 265.105L1321.4 243.846M1262.67 265.105L1261.92 260.775L1171.1 289.789M1308.98 417.63L1312.57 412.555M1308.98 417.63L1307.19 420.168M1312.57 412.555L1307.19 420.168M1321.4 243.846L1320.28 237.351L1327.07 225.035L1324.46 209.88L1327.3 200.475L1333.42 197.192L1329.76 188.905L1335.51 183.457L1332.6 179.499L1336.56 176.589L1344.17 181.966L1344.02 155.241L1333.5 145.907L1323.28 125.375L1313.81 109.173L1307.99 101.258L1299.33 102.749L1291.79 110.734L1287.46 111.48L1283.95 129.918L1279.63 130.663L1278.58 137.531L1272.09 138.649L1260.89 138.347L1260.08 120.654L1267.99 114.834L1271.57 109.758L1270.08 101.098L1277.24 90.9478L1270.98 67.5056L1265.16 59.591L1257.92 56.379L1258.97 49.5114L1265.83 50.5584L1260.38 44.8087L1256.06 45.5541L1254.57 36.8941L1245.91 38.3848L1232.18 36.2907L1219.19 38.5267L1215.91 32.4044L1209.05 31.3574L1202.55 32.4754L1188.82 30.3813L1183.08 35.8293L1177.7 43.4423L1178.82 49.9373L1181.36 51.7296L1190.39 52.4039L1188.59 54.9415L1176.36 61.5075L1170.61 66.9555L1174.64 77.4077L1176.87 90.3976L1174.04 99.8029L1169.34 98.3832L1166.43 94.4259L1163.07 74.941L1157.4 93.7516L1153.07 94.4969L1147.32 99.9449L1150.6 106.067L1142.69 111.888L1148.14 117.637L1150.75 132.792L1147.91 142.198L1142.91 151.975L1150.89 159.517L1152.01 166.012L1149.18 175.418L1155.37 185.497L1163.35 193.039L1165.89 194.832L1170.22 194.086L1169.17 200.954L1175.36 211.033L1178.65 217.156L1183.49 245.301L1179.61 261.574L1177.15 273.144L1176.85 284.341L1171.1 289.789M320.197 32.8294C320.197 32.8294 402.189 21.5665 442.998 14.8525C498.979 5.6427 610.567 -14.942 610.567 -14.942M320.197 32.8294C320.197 32.8294 239.982 43.8008 154.315 52.3516C103.085 57.465 49.666 60.322 10.9509 63.3145C-57.8538 68.6329 -196.209 74.9397 -196.209 74.9397M610.567 -14.942L620.041 1.25998L618.995 8.12759L623.096 31.9425M623.096 31.9425L641.3 60.0163L645.329 70.4686M623.096 31.9425L640.928 57.8513L645.329 70.4686M-75.8029 838.879L-80.0585 852.986L-86.551 854.104L-90.2063 845.817L-94.1619 848.727L-101.4 845.515L-109.311 851.336L-109.984 860.369L-106.701 866.491L-108.12 871.194L-104.092 881.646L-105.138 888.513L-101.109 898.966L-99.6181 907.626L-103.574 910.536M-103.574 910.536L-102.082 919.196M-103.574 910.536L-100.964 925.691M-102.082 919.196L-100.964 925.691M1757.97 126.316L1757.59 124.151L1754.31 118.028L1749.24 114.444L1748.12 107.949L1750.28 107.576L1756.1 115.491L1758.64 117.283L1763.79 134.23L1769.16 126.617L1770.58 121.915L1765.13 116.165M1765.13 116.165L1771.92 103.85L1766.85 100.265L1752.9 58.0831M1752.9 58.0831L1779.92 46.7436L1782.45 48.5359L1825.67 27.7201M200.861 1125.62L95.4906 1134.84L-106.657 1073.8L-105.612 1066.93L-102.402 1059.69M1835.82 -29.7585L1837.24 -34.4611M1835.82 -29.7585C1836.3 -31.3261 1837.24 -34.4611 1837.24 -34.4611M1837.24 -34.4611L1841.2 -37.3714L1845.53 -38.1168M1845.53 -38.1168L1844.41 -44.6117L1845.83 -49.3143M1845.83 -49.3143L1836.42 -52.1537L1835.3 -58.6486L1825.9 -61.488L1824.78 -67.9829M1845.83 -49.3143L1846.13 -60.512L1842.47 -68.7993L1848.22 -74.2472L1850.01 -76.7849L1846.35 -85.0722L1852.47 -88.3551L1846.65 -96.2698L1853.45 -108.585L1857.77 -109.331L1858.89 -102.836L1860.31 -107.538L1865.39 -103.954L1866.8 -108.656L1853.75 -119.783L1866.06 -112.986L1864.19 -123.811L1872.55 -114.104L1874.27 -130.005L1881.51 -126.792L1885.09 -131.868L1885.76 -140.9L1880.99 -155.683L1882.41 -160.385L1885.62 -167.626L1888.53 -163.668L1893.97 -157.919L1900.47 -159.037L1901.14 -168.069L1908 -167.022L1913.08 -163.438L1915.17 -177.173L1910.1 -180.757L1919.5 -177.918L1925.25 -183.366L1929.5 -197.474L1933.83 -198.219L1941.74 -204.04L1951.07 -214.563L1951.74 -223.596L1945.62 -220.313L1944.13 -228.973L1934.36 -233.977L1930.4 -231.067L1921 -233.906L1918.09 -237.863L1914.81 -243.986L1915.85 -250.853L1911.15 -252.273L1900.33 -250.41L1895.63 -251.829L1891.23 -264.447L1858.78 -323.505L1847.21 -325.971L1839.6 -331.348L1831.31 -327.693L1828.1 -320.452L1812.28 -308.811L1805.42 -309.858L1801.76 -318.145L1791.31 -314.117L1780.41 -260.969L1785.18 -246.186L1781.97 -238.946L1782.72 -234.616L1781.67 -227.748L1786.38 -226.329L1784.58 -223.791L1786.08 -215.131L1790.4 -215.876L1787.57 -206.471L1788.69 -199.976L1783.68 -190.198L1782.64 -183.331L1787.71 -179.746L1786.29 -175.043L1781.59 -176.463L1783.46 -165.638L1775.85 -171.015L1772.64 -163.775M1824.78 -67.9829L1818.59 -78.0626L1772.64 -163.775M1824.78 -67.9829L1772.64 -163.775M479.377 491.381L490.189 554.166M479.377 491.381L516.803 734.605M490.189 554.166C490.189 554.166 576.642 540.29 619.682 532.27C681.715 520.711 805.41 495.427 805.41 495.427M490.189 554.166C490.189 554.166 601.831 535.596 657.466 525.229C706.905 516.017 805.41 495.427 805.41 495.427M490.189 554.166L516.803 734.605M805.41 495.427L800.336 491.843L799.59 487.513L794.144 481.763L786.905 478.551L780.713 468.471L776.012 467.052M776.012 467.052L774.521 458.392M776.012 467.052L775.266 462.722M774.521 458.392L769.447 454.807L764.973 428.827L759.899 425.243L763.855 422.332L756.617 419.12L755.498 412.625L747.887 407.248L747.815 393.886L742.741 390.301L741.623 383.806L736.921 382.386L733.639 376.264L728.938 374.845L727.447 366.185L723.418 355.732M774.521 458.392L775.266 462.722M-196.209 74.9397L-195.545 130.555L-184.652 142.054L-178.46 152.134L-179.878 156.837L-176.596 162.959L-178.76 163.332L-168.239 172.666L-161.001 175.878L-142.497 192.754L-143.915 197.457L-133.767 204.626L-129.439 203.881L-128.321 210.376L-115.336 208.14L-119.519 235.61L-123.474 238.521L-118.328 255.468L-124.447 258.751L-122.21 271.741L-112.063 278.91L-96.9863 262.939L-91.1667 270.853L-83.856 287.428L-72.2169 303.257L-72.8899 312.29L-65.279 317.667L-58.7865 316.549L-51.4758 333.123L-41.328 340.293L-38.1181 333.052L-22.2233 334.774L-19.0134 327.534L0.836702 326.345L3.3737 328.137L16.3586 325.901L19.1957 316.496L23.5241 315.75L36.9544 329.042M775.266 462.722C775.266 462.722 827.021 453.002 852.712 447.06C889.881 438.462 963.848 419.103 963.848 419.103M775.266 462.722C775.266 462.722 837.053 450.682 867.76 443.579C899.914 436.142 963.848 419.103 963.848 419.103M1140.31 602.719L1135.23 599.134L1135.98 603.464L1129.11 602.417L1128.37 598.087L1120.38 590.545L1120.01 588.38L1121.06 581.512L1120.68 579.347L1115.61 575.763L1114.12 567.103L1104.72 564.264L1099.27 558.514L1097.11 558.886L1083 554.627L1063.45 544.619L1061.96 535.959L1065.47 517.521M1140.31 602.719L1142.1 600.181L1139.56 598.389L1142.77 591.148L1146.35 586.073L1152.85 584.955L1169.11 588.842L1171.28 588.469L1175.23 585.558L1172.32 581.601L1166.88 575.852L1167.92 568.984M1065.47 517.521L1064.35 511.026L1065.77 506.323M1065.47 517.521L1063.98 508.861L1065.77 506.323M1065.77 506.323L1058.16 500.946L1049.5 502.437L1044.13 510.05L1039.06 506.465L1032.86 496.386L1031.75 489.891L1026.3 484.141L1012.2 479.882L1009.29 475.925L994.437 467.336L985.708 455.464L979.143 443.219L979.815 434.187L981.234 429.484M981.234 429.484L963.848 419.103M1220.66 707.029L1223.57 710.986L1228.27 712.406L1260.33 898.594L1288.23 982.958M1220.66 707.029L1345.74 669.887M1288.23 982.958L1287.19 989.826L1277.78 986.986L1275.99 989.524L1269.5 990.642L1260.1 987.803L1252.56 995.788L1246.81 1001.24L1239.57 998.024L1240.32 1002.35L1239.27 1009.22L1228.83 1013.25M1288.23 982.958L1296.89 981.467L1301.96 985.052L1304.13 984.679L1301.89 971.689L1301.82 958.327L1311.59 963.331L1310.92 972.364L1326.14 983.118L1332.26 979.835L1329.35 975.877L1333.68 975.132L1338.68 965.354M1228.83 1013.25L1228.08 1008.92L1221.89 998.84M1228.83 1013.25L1228.45 1011.08L1221.89 998.84M1221.89 998.84L1214.28 993.463L1210.99 987.341L1210.55 971.814L1209.8 967.483L1113.91 992.913L1112.42 984.253L1108.76 975.966L1113.09 975.221L1114.51 970.518L1110.85 962.231L1114.06 954.99L1115.78 939.09L1126.9 926.029L1123.25 917.742L1125.41 917.369L1127.5 903.634L1117.73 898.63L1116.61 892.135L1111.16 886.385L1115.12 883.475L1112.58 881.683L1109.67 877.725L1112.88 870.485L1105.64 867.273M1171.1 289.789L1153.48 303.968L1146.99 305.086L1139.75 301.874M1307.19 420.168L1310.1 424.125L1310.85 428.455L1315.55 429.875L1316.67 436.37L1310.18 437.488L1300.47 445.846L1295.77 444.426L1287.49 448.082L1291.52 458.534L1288.31 465.775L1283.98 466.52L1285.47 475.18L1281.51 478.09L1277.19 478.835L1276.51 487.868L1278 496.528L1272.26 501.976L1265.02 498.764L1258.15 497.717L1255.24 493.76L1252.03 501L1249.2 510.405L1248.15 517.273L1243.45 515.853L1236.21 512.641L1230.09 515.924L1228.3 518.462L1225.46 527.867L1220.39 524.282L1208.82 521.816L1203.08 527.264L1200.17 523.306L1201.29 529.801L1199.49 532.339L1196.58 528.382L1192.63 531.292L1185.76 530.245L1187.26 538.905L1180.76 540.023M1180.76 540.023L1179.34 544.725L1178.3 551.593L1183.37 555.178L1184.12 559.508M1180.76 540.023L1177.48 533.901L1179.27 531.363L1177.78 522.703L1181.36 517.628L1176.29 514.043L1177.71 509.34L1181.66 506.43L1184.5 497.025L1188.08 491.949L1186.96 485.455L1190.17 478.214L1189.43 473.884L1186.15 467.762L1185.4 463.432L1179.95 457.682L1174.88 454.098L1178.84 451.187L1175.55 445.065L1179.14 439.99L1139.75 301.874M1184.12 559.508L1167.92 568.984M1184.12 559.508L1174.04 565.701L1167.92 568.984M1345.74 669.887L1405.57 784.418L1417.58 802.412L1425.57 809.954L1427.06 818.614L1433.92 819.661L1428.55 827.274L1430.41 838.099L1426.83 843.174L1428.69 853.999L1439.21 863.334L1440.78 885.356L1448.39 890.733L1451.67 896.855M1451.67 896.855L1457.12 902.605L1460.77 910.892L1586.97 880.245L1599.58 875.845L1600.32 880.174L1605.77 885.924L1612.26 884.806L1612.19 871.444L1607.49 870.024L1606 861.364L1609.58 856.289L1620.78 856.59M1451.67 896.855L1320.1 935.115L1319.8 946.313L1327.41 951.69L1334.28 952.737L1335.77 961.397L1338.68 965.354M1620.78 856.59L1638.09 853.609L1638.83 857.939L1634.51 858.685L1635.62 865.179L1642.86 868.391L1646.89 878.844L1655.62 890.716L1673.82 918.79L1697.77 941.416L1721.35 961.876L1714.86 962.994L1711.21 954.707L1707.25 957.617L1714.19 972.027L1727.62 985.319L1741.42 1000.78L1752.31 1012.27L1763.58 1025.94L1766.12 1027.73L1771.94 1035.65L1765.07 1034.6L1767.98 1038.56L1772.31 1037.81L1782.46 1044.98L1783.2 1049.31L1788.28 1052.89L1792.68 1065.51L1795.66 1082.83L1798.2 1084.62L1802.3 1108.44L1802.37 1121.8L1800.65 1137.7L1805.73 1141.29L1801.1 1153.23L1794.61 1154.35L1789.6 1164.13L1780.57 1163.45L1779.16 1168.15L1768.71 1172.18L1763.63 1168.6L1762.52 1162.1L1774.46 1166.73L1778.04 1161.66L1772.96 1158.07L1761.77 1157.77L1755.95 1149.86L1745.8 1142.69L1745.06 1138.36L1737.82 1135.15L1719.76 1133.8L1711.78 1126.26L1707.75 1115.8L1701.93 1107.89L1700.14 1110.43L1695.44 1109.01L1698.65 1101.77L1702.23 1096.69L1701.48 1092.36L1693.95 1100.35L1694.69 1104.68L1690.74 1107.59L1687.45 1101.46L1682.68 1086.68L1686.63 1083.77L1684.1 1081.98L1675.81 1085.64L1669.32 1086.75L1679.47 1093.92L1672.98 1095.04L1665.37 1089.66L1659.92 1083.91L1651.94 1076.37L1648.65 1070.25L1641.04 1064.87L1641.72 1055.84L1648.13 1041.36L1642.32 1033.45L1639.11 1040.69L1637.99 1034.19L1628.59 1031.35L1627.54 1038.22L1634.78 1041.43L1634.1 1050.46L1624.33 1045.46L1623.88 1029.93L1618.81 1026.35L1621.27 1014.78L1617.55 993.127L1614.64 989.169L1613.15 980.509L1605.91 977.297L1599.71 967.218L1586.73 969.454L1579.49 966.242L1574.05 960.492L1567.18 959.445L1562.11 955.86L1558.45 947.573L1549.42 946.899L1546.51 942.941L1536.36 935.772L1529.87 936.89L1520.47 934.051L1509.65 935.914L1503.53 939.197L1495.99 947.183L1505.39 950.022L1496.74 951.513L1483.82 967.111L1480.91 963.154L1473.38 971.139L1465.46 976.96L1458.97 978.078L1457.85 971.583L1450.24 966.206L1438.3 961.574L1445.17 962.621L1449.12 959.711L1444.05 956.126L1437.56 957.244L1432.86 955.825L1438.23 948.212L1435.32 944.255L1429.95 951.868L1427.04 947.91L1421.29 953.358L1428.9 958.735L1414.8 954.476L1396.74 953.127L1407.19 949.099L1399.58 943.722L1389.13 947.75L1384.8 948.496L1381.59 955.736L1362.49 961.255L1366.44 958.345L1359.58 957.298L1360.99 952.595L1356.67 953.34L1355.25 958.043L1348.01 954.831L1351.29 960.953L1342.71 975.806L1340.17 974.014L1343.01 964.609L1338.68 965.354M-102.402 1059.69L-100.61 1057.15L-93.745 1058.2L-91.5808 1057.83L-88.7437 1048.42L-90.2349 1039.76L-99.2643 1039.09L-102.174 1035.13L-101.128 1028.26L-103.365 1015.27L-96.8728 1014.15L-94.0356 1004.75L-92.6898 986.683L-93.4354 982.353L-89.8526 977.278L-88.4341 972.575L-80.5231 966.755L-75.1491 959.142L-87.8339 950.18L-92.2349 937.563L-100.964 925.691M2217.46 1352.6L2219.66 1353.72L2219.45 1354.01L2218.34 1354.49L2219.39 1354.84L2218.4 1355.49L2217.44 1355.76L2216.63 1355.57L2215.89 1354.94L2215.2 1355.34L2217.09 1356.53L2217.73 1357.26L2217.95 1358.5L2215.34 1357.14L2209.03 1355.66L2208.83 1355.27L2211.25 1353.89L2214.39 1352.82L2217.46 1352.6ZM2226.67 1373L2226.17 1373.8L2223.44 1375.15L2222.92 1375.77L2221.8 1378.13L2221.6 1379.01L2220.9 1379.42L2219.57 1379.08L2218.29 1380.24L2216.9 1382.1L2210.17 1388.33L2209.05 1390.01L2206.64 1390.52L2203.77 1392.64L2200.65 1393.84L2197.47 1391.81L2198.99 1390.86L2199.5 1390.67L2201.36 1389.37L2202.93 1387.51L2204.08 1385.42L2204.82 1383.45L2205.49 1382.44L2212.64 1376.67L2214.03 1376.17L2218.11 1375.37L2223.45 1372.57L2225.04 1372.35L2226.67 1373ZM2033.24 1431.6L2044.84 1428.01L2054.4 1420.96L2055.9 1420.36L2060.37 1419.6L2061.88 1418.84L2065.29 1415.85L2070.64 1412.24L2073.45 1411.03L2076.59 1410.58L2078.05 1409.33L2084.46 1405.86L2089.04 1404.83L2096.53 1398.43L2105.61 1396.44L2109.37 1392.54L2115.56 1391.26L2116.19 1389.85L2117.6 1389.32L2118.82 1389.84L2119.48 1390.21L2120.54 1390.09L2121.2 1389.01L2121.39 1387.55L2122.53 1387.28L2123.01 1388.87L2125.49 1388.8L2126.36 1389.61L2127.74 1390.55L2129.27 1389.77L2131.99 1386.97L2131.54 1386.22L2129.77 1386.87L2127.48 1387.02L2125.26 1386.38L2123.31 1385.83L2131 1384.22L2132.77 1383.63L2134.12 1383.31L2135.91 1382.78L2136.92 1381.29L2137.06 1379.47L2139.56 1378.71L2144.81 1377.43L2145.81 1375.55L2147.09 1375.11L2148.85 1375.31L2152.4 1374.2L2154.69 1374.17L2157.55 1375.05L2158.35 1373.96L2158.5 1372.49L2159.21 1372.37L2159.59 1372.81L2159.44 1373.73L2159.48 1374.72L2160.13 1374.12L2160.93 1373.07L2161.32 1372.34L2164.39 1373.86L2166.56 1373.79L2167.29 1372.09L2171.17 1372.71L2174.86 1371.2L2175.88 1368.98L2176.27 1367.78L2176.76 1366.79L2177.66 1366.54L2178.12 1367.2L2180.07 1372.9L2182.3 1377.31L2183.45 1378.29L2183.72 1379.82L2184.88 1380.13L2185.86 1380.02L2186.85 1378.57L2187.11 1379.68L2187.85 1380.25L2189.95 1381.23L2189.31 1382.54L2189.69 1383.5L2188.85 1384.1L2187.03 1383.12L2185.93 1383.75L2186.15 1385.02L2187.93 1385.82L2187.4 1387.15L2186.13 1387.63L2183.97 1387.69L2182.56 1389.29L2181.27 1391.14L2179.57 1392.75L2178.39 1394.4L2177.59 1397.06L2177.16 1404.49L2178.46 1407.39L2178.1 1409.96L2177.77 1410.58L2175.8 1412.39L2175.62 1413.31L2178.34 1415.79L2177.44 1418.63L2175 1423.05L2170.86 1427.76L2168.59 1428.94L2166.1 1429.78L2163.93 1430.71L2162.86 1431.69L2160.59 1434.46L2159.96 1434.95L2156.86 1436.55L2155.1 1438.23L2151.03 1444.62L2149.81 1445.43L2148.75 1445.99L2147.81 1446.59L2147.29 1447.56L2146.5 1447.16L2146.25 1447L2145.9 1446.54L2146.8 1445.59L2146.77 1444.89L2146.01 1444.5L2144.67 1444.39L2143.72 1447.23L2142.81 1448.18L2141.16 1448.58L2138.27 1449.85L2137.18 1450.15L2136.33 1449.82L2135.57 1449.35L2134.72 1449.01L2133.08 1449.06L2132.11 1449.38L2130.57 1450.4L2128.51 1452.18L2126.78 1455.73L2124.62 1456.67L2121.85 1456.21L2119.17 1455.19L2116.87 1455.08L2115.24 1456.52L2113.92 1457.48L2113.16 1458.64L2111.87 1459.73L2108.7 1461.74L2107.94 1462.87L2107.34 1464.08L2106.27 1464.97L2104.26 1465.11L2103.79 1465.92L2103.21 1466.58L2101.87 1465.76L2100.12 1466.64L2096.38 1469.45L2095.47 1469.64L2091.87 1470.14L2087.77 1472.41L2087.04 1470.94L2085.92 1470.97L2084.76 1472.07L2083.93 1473.56L2084.34 1474.29L2085.73 1473.51L2085.42 1475.73L2084.04 1477.93L2082.12 1479.85L2080.24 1481.33L2077.03 1482.96L2075.64 1483.95L2074.47 1484.46L2073.96 1484.8L2073.78 1485.41L2074.01 1486.24L2074.52 1487.29L2072.53 1488.1L2070.56 1487.84L2066.97 1486.66L2064.85 1487.65L2062.45 1488.55L2060.02 1489.89L2058.34 1490.23L2057.62 1492.18L2056.49 1493.98L2055.17 1495.13L2053.89 1495.62L2050.24 1497.16L2047.39 1497.13L2046.77 1498.56L2048.77 1500.62L2047.67 1501.11L2045 1499.67L2043.96 1499.01L2042.37 1496.06L2044.15 1493.62L2044.66 1492.9L2045.46 1492.12L2045.98 1491.31L2045.9 1490.33L2045.18 1489.96L2043.94 1489.97L2042.71 1490.94L2041.15 1491.06L2040.15 1489.12L2040.26 1487.74L2040.87 1486.51L2039.88 1485.67L2038.54 1484.17L2039.01 1482.54L2037.06 1479.14L2036.04 1474.79L2036.35 1473.53L2036.76 1472.28L2036.67 1470.81L2035.38 1470.02L2033.51 1469.6L2029.16 1465.46L2027.2 1464.04L2024.68 1464.85L2022.65 1465.35L2019.4 1463.1L2017.54 1462.14L2015.76 1460.69L2015.54 1459.9L2017.92 1457.49L2019.68 1455.24L2021.12 1453.44L2022.06 1451.78L2023.46 1448.47L2022.33 1446.05L2020.24 1444.86L2018.68 1442.29L2019.18 1438.84L2023.38 1434.75L2028.79 1432.01L2033.24 1431.6ZM1972.94 1525.63L1972.1 1526.25L1971.09 1526.67L1970.47 1526.62L1969.33 1526.01L1965.62 1525.94L1964.19 1524.91L1964.02 1523.01L1964.85 1521.74L1970.57 1518.49L1971.25 1518.32L1972.95 1518.78L1973.41 1519.47L1973.18 1520.47L1973.2 1522.89L1972.98 1523.57L1972.9 1524.2L1973.25 1525.13L1972.94 1525.63ZM1759.53 148.338L1757.74 150.876L1756.69 157.744L1760.65 154.833L1762.07 150.131L1759.53 148.338ZM1763.49 145.428L1763.86 147.593L1766.4 149.385L1771.77 141.772L1776.47 143.192L1778.26 140.654L1794.08 129.013L1800.58 127.895L1799.83 123.565L1804.16 122.82L1811.7 114.834L1822.15 110.806L1823.56 106.103L1821.03 104.311L1819.24 106.849L1816.7 105.056L1823.49 92.7407L1820.95 90.9484L1814.16 103.264L1812.37 105.802L1801.92 109.83L1797.59 110.575L1795.8 113.113L1793.64 113.486L1794.01 115.65L1785.73 119.306L1783.94 121.844L1779.24 120.424L1779.98 124.754L1777.44 122.962L1775.65 125.499L1776.4 129.829L1772.44 132.74L1770.65 135.277L1766.32 136.023L1764.53 138.56L1763.49 145.428ZM1824.98 101.401L1825.36 103.566L1827.52 103.193L1833.27 97.745L1834.69 93.0424L1839.01 92.297L1844.39 84.6841L1836.48 90.5047L1832.15 91.25L1828.19 94.1603L1826.4 96.6979L1824.98 101.401ZM1886.03 41.8458L1886.78 46.1758L1890.36 41.1005L1898.65 37.4448L1891.41 34.2328L1889.99 38.9355L1886.03 41.8458ZM1913.8 34.8362L1916.33 36.6286L1920.66 35.8833L1922.45 33.3456L1919.54 29.3883L1918.12 34.0909L1913.8 34.8362ZM1858.57 37.6578L1857.15 42.3604L1860.44 48.4827L1862.23 45.9451L1858.57 37.6578ZM888.213 1713.91L892.168 1711L893.214 1704.13L902.544 1693.61L910.455 1687.78L918.739 1684.13L929.187 1680.1L936.725 1672.12L939.562 1662.71L927.995 1660.24L924.34 1651.96L917.848 1653.07L916.356 1644.41L906.208 1637.24L880.912 1632.68L879.12 1635.22L867.181 1630.59L862.107 1627.01L856.36 1632.45L865.09 1644.33L858.297 1656.64L853.296 1666.42L859.115 1674.33L865.307 1684.41L868.963 1692.7L869.035 1706.06L874.482 1711.81L883.139 1710.32L888.213 1713.91ZM558.471 1558.91L561.008 1560.71L562.127 1567.2L556.007 1570.48L552.797 1577.73L550.26 1575.93L549.515 1571.6L558.471 1558.91ZM590.488 1537.8L580.786 1546.16L577.576 1553.4L580.859 1559.52L587.351 1558.4L594.962 1563.78L599.29 1563.03L607.574 1559.38L608.247 1550.34L611.457 1543.1L603.846 1537.73L595.562 1541.38L590.488 1537.8ZM702.869 1556.34L713.39 1565.68L714.881 1574.34L722.792 1568.52L729.358 1580.76L722.865 1581.88L711.671 1581.58L704.433 1578.36L705.179 1582.69L701.223 1585.6L693.612 1580.23L688.166 1574.48L684.51 1566.19L693.54 1566.87L702.869 1556.34ZM755.7 1578.45L760.401 1579.87L767.266 1580.92L775.923 1579.43L775.55 1577.26L780.624 1580.85L795.773 1578.24L788.235 1586.23L779.579 1587.72L772.34 1584.5L759.728 1588.91L755.4 1589.65L752.49 1585.69L756.446 1582.78L755.7 1578.45ZM774.577 1597.49L781.07 1596.38L790.845 1601.38L785.471 1608.99L778.605 1607.95L777.487 1601.45L772.786 1600.03L774.577 1597.49ZM808.604 1613.93L800.32 1617.58L800.693 1619.75L805.394 1621.17L811.513 1617.88L808.604 1613.93ZM810.695 1600.19L815.769 1603.78L816.887 1610.27L819.797 1614.23L823.753 1611.32L830.245 1610.2L833.828 1605.13L838.529 1606.54L843.903 1598.93L843.157 1594.6L835.919 1591.39L823.98 1586.76L816.069 1592.58L811.368 1591.16L798.683 1582.2L797.637 1589.07L796.219 1593.77L804.203 1601.31L810.695 1600.19ZM206.851 1496.86L108.684 1237.34L104.729 1240.25L95.3263 1237.41L88.0882 1234.2L79.4317 1235.69L71.1477 1239.35L67.1923 1242.26L58.5357 1243.75L53.8345 1242.33L43.0138 1244.19L33.9844 1243.52L27.1191 1242.47L19.8811 1239.26L9.80581 1245.45L7.26883 1243.66L-0.642124 1249.48L-7.50731 1248.43L-8.25292 1244.1L-15.1183 1243.06L-11.5356 1237.98L-22.7292 1237.68L-31.013 1241.34L-37.5055 1242.45L-36.0869 1237.75L-41.1609 1234.17L-45.7893 1246.11L-51.236 1240.36L-45.4891 1234.91L-57.4283 1230.28L-62.8024 1237.89L-70.3406 1245.88L-83.3255 1248.11L-89.0724 1253.56L-94.4464 1261.18L-102.358 1267L-107.059 1265.58L-115.642 1280.43L-120.644 1290.21L-121.69 1297.07L-127.064 1304.69L-140.049 1306.92L-151.242 1306.62L-151.542 1317.82L-155.125 1322.9L-144.604 1332.23L-129.383 1342.98L-123.563 1350.9L-124.609 1357.77L-110.505 1362.02L-99.6847 1360.16L-97.1477 1361.95L-100.73 1367.03L-99.612 1373.52L-88.7912 1371.66L-81.926 1372.71L-80.8076 1379.2L-87.3 1380.32L-92.7467 1374.57L-101.031 1378.23L-94.1653 1379.27L-90.8828 1385.4L-95.5839 1383.98L-98.7937 1391.22L-107.823 1390.54L-112.524 1389.12L-123.718 1388.82L-126.628 1384.86L-121.626 1375.09L-130.656 1374.41L-136.403 1379.86L-142.895 1380.98L-146.851 1383.89L-143.941 1387.84L-152.97 1387.17L-162.673 1395.53L-175.285 1399.93L-169.465 1407.84L-152.825 1413.9L-158.572 1419.34L-155.289 1425.47L-156.335 1432.33L-146.56 1437.34L-135.366 1437.64L-129.247 1434.36L-118.053 1434.66L-115.143 1438.62L-108.278 1439.66L-105.068 1432.42L-94.993 1426.23L-88.8734 1422.95L-83.4267 1428.7L-86.6366 1435.94L-93.129 1437.05L-87.6823 1442.8L-83.2814 1455.42L-86.1184 1464.83L-98.7306 1469.23L-104.177 1463.48L-105.223 1470.34L-112.761 1478.33L-117.09 1479.08L-124.7 1473.7L-130.447 1479.15L-135.821 1486.76L-134.33 1495.42L-140.45 1498.7L-147.242 1511.02L-146.497 1515.35L-152.617 1518.63L-147.543 1522.22L-151.498 1525.13L-148.216 1531.25L-144.56 1539.54L-140.605 1536.63L-135.158 1542.38L-114.562 1545.52L-113.816 1549.85L-117.772 1552.76L-122.846 1549.17L-127.174 1549.92L-134.412 1546.7L-141.951 1554.69L-131.43 1564.02L-123.073 1573.73L-115.835 1576.94L-105.76 1570.75L-100.013 1565.3L-99.3404 1556.27L-97.8492 1564.93L-90.9112 1579.34L-87.6287 1585.46L-91.2113 1590.54L-87.556 1598.82L-90.0203 1610.39L-83.1551 1611.44L-65.9144 1595.1L-62.6319 1601.22L-55.7666 1602.27L-42.709 1613.39L-38.7535 1610.48L-42.7817 1600.03L-37.4076 1592.42L-35.5436 1603.24L-32.6339 1607.2L-14.6476 1595.19L-11.0649 1590.11L-17.4847 1604.59L-22.1133 1616.53L-15.2479 1617.58L-21.3676 1620.86L-18.0124 1640.35L-22.7135 1638.93L-32.043 1649.45L-33.4616 1654.16L-34.1346 1663.19L-38.8357 1661.77L-50.7022 1670.5L-62.196 1681.4L-63.2417 1688.26L-57.7949 1694.01L-64.6602 1692.97L-74.4352 1687.96L-86.6746 1694.53L-95.6313 1707.22L-103.542 1713.04L-107.125 1718.11L-116.155 1717.44L-121.901 1722.89L-128.767 1721.84L-131.977 1729.08L-133.768 1731.62L-130.485 1737.74L-124.366 1734.46L-120.41 1731.55L-111.381 1732.22L-104.215 1722.07L-97.7228 1720.95L-94.1401 1715.88L-87.6477 1714.76L-76.8995 1699.53L-72.1984 1700.95L-75.4083 1708.19L-67.4974 1702.37L-66.379 1708.87L-61.305 1712.45L-59.8865 1707.75L-63.169 1701.63L-55.258 1695.81L-45.1828 1689.61L-34.7348 1685.58L-29.7336 1675.81L-26.5236 1668.57L-14.2844 1662L-8.91026 1654.39L-0.626497 1650.73L0.0464539 1641.7L7.21188 1631.55L17.287 1625.35L20.1242 1615.95L30.5722 1611.92L30.8723 1600.72L40.5747 1592.37L41.9932 1587.66L32.2181 1582.66L26.0985 1585.94L28.5628 1574.37L33.564 1564.59L40.0565 1563.47L44.6851 1551.53L39.2383 1545.78L47.1493 1539.96L51.7777 1528.02L54.6147 1518.61L58.9431 1517.87L64.3172 1510.26L72.9739 1508.76L85.2859 1515.56L74.8379 1519.59L69.7639 1516L62.9713 1528.32L58.6429 1529.07L62.2983 1537.35L57.6699 1549.3L59.5339 1560.12L64.235 1561.54L69.9819 1556.09L58.861 1569.15L59.9794 1575.65L70.4274 1571.62L76.1743 1566.17L81.1755 1556.39L94.0878 1540.8L105.281 1541.1L107.373 1527.36L99.3891 1519.82L103.645 1505.71L106.927 1511.83L117.375 1507.81L128.569 1508.11L140.508 1512.74L130.806 1521.1L148.119 1518.12L153.12 1508.34L154.612 1517L168.342 1519.09L178.79 1515.06L191.402 1510.66L202.223 1508.8L209.088 1509.85L220.655 1512.31L227.82 1502.16L233.94 1498.88L235.431 1507.54L231.848 1512.62L252.444 1515.76L271.248 1521.44L283.188 1526.07L290.053 1527.11L297.964 1521.29L285.279 1512.33L293.19 1506.51L301.547 1516.22L308.412 1517.27L313.113 1518.68L290.953 1493.52L316.323 1511.44L322.142 1519.36C322.142 1519.36 319.835 1519.76 317.814 1520.1C316.229 1520.38 311.322 1521.22 311.322 1521.22L298.709 1525.62L298.409 1536.82L336.464 1563.71L348.403 1568.34L336.391 1550.34L323.333 1539.22L335.645 1546.01L342.065 1531.53L331.172 1520.03L342.738 1522.5L351.095 1532.21L358.706 1537.58L348.258 1541.61L342.883 1549.23L359.224 1566.47L362.061 1557.07L368.853 1544.75L373.254 1557.37L371.536 1573.27L384.966 1586.56L395.114 1593.73L397.951 1584.33L406.98 1585L398.624 1575.29L378.328 1560.96L376.837 1552.3L389.522 1561.26L401.834 1568.05L414.519 1577.02L411.909 1561.86L425.339 1575.15L428.849 1556.71L420.12 1544.84L416.465 1536.55L407.808 1538.05L387.212 1534.9L378.556 1536.4L367.662 1524.9L335.055 1503.76L324.907 1496.59L313.34 1494.12L301.028 1487.33L290.508 1477.99L279.014 1488.89L281.251 1501.88L271.921 1512.4L266.102 1504.49L242.596 1497.39L235.358 1494.18L233.494 1483.35L223.419 1489.55L222 1494.25L206.851 1496.86ZM-518.678 1722.1L-524.125 1716.35L-530.99 1715.31L-530.244 1719.64L-525.543 1721.06L-518.678 1722.1ZM-438.614 1772.96L-437.868 1777.29L-433.54 1776.55L-438.614 1772.96ZM-453.463 1764.37L-450.18 1770.5L-460.628 1774.53L-453.463 1764.37ZM-434.586 1783.42L-426.602 1790.96L-423.692 1794.92L-428.393 1793.5L-436.377 1785.95L-434.586 1783.42ZM-415.481 1777.9L-419.809 1778.64L-419.064 1782.97L-412.944 1779.69L-415.481 1777.9ZM-370.634 1792.47L-375.708 1788.88L-377.872 1789.25L-374.589 1795.38L-370.634 1792.47ZM-336.68 1795.54L-345.337 1797.03L-348.62 1790.9L-354.366 1796.35L-357.949 1801.43L-344.964 1799.19L-336.68 1795.54ZM-285.414 1795.63L-294.07 1797.12L-307.801 1795.02L-320.786 1797.26L-328.024 1794.05L-312.502 1793.6L-306.755 1788.15L-298.098 1786.66L-299.144 1793.53L-285.414 1795.63ZM-240.712 1783.47L-242.13 1788.17L-235.638 1787.05L-240.712 1783.47ZM-221.607 1777.95L-223.026 1782.65L-228.1 1779.07L-221.607 1777.95ZM-191.009 1761.54L-197.129 1764.82L-196.383 1769.15L-202.876 1770.27L-206.085 1777.51L-211.832 1782.95L-199.593 1776.39L-196.01 1771.31L-185.562 1767.29L-191.009 1761.54ZM-166.53 1748.4L-175.187 1749.89L-174.069 1756.39L-175.114 1763.26L-183.398 1766.91L-178.324 1770.5L-167.876 1766.47L-164.666 1759.23L-156.383 1755.57L-166.53 1748.4ZM-147.799 1740.72L-151.381 1745.79L-156.082 1744.38L-152.8 1750.5L-146.68 1747.21L-137.278 1750.05L-133.695 1744.98L-144.889 1744.68L-147.799 1740.72ZM56.0966 1591.92L55.4236 1600.95L66.2443 1599.09L69.1541 1603.05L58.7062 1607.08L55.1235 1612.15L61.6159 1611.03L61.3158 1622.23L65.6441 1621.49L62.4342 1628.73L50.8678 1626.26L60.6428 1631.26L54.1504 1632.38L54.896 1636.71L49.5219 1644.32L45.1936 1645.07L39.8195 1652.68L43.1021 1658.81L32.2812 1660.67L39.0739 1648.35L32.2086 1647.31L28.5532 1639.02L25.2707 1632.9L33.1818 1627.08L40.4198 1630.29L34.2275 1620.21L42.8841 1618.72L43.9299 1611.85L51.4681 1603.86L56.0966 1591.92Z" stroke="url(#paint0_linear_2_41425)" stroke-width="1.21945" stroke-linecap="round" stroke-linejoin="round"/>
<defs>
<linearGradient id="paint0_linear_2_41425" x1="-598.728" y1="619.298" x2="1777.46" y2="591.943" gradientUnits="userSpaceOnUse">
<stop stop-color="white" stop-opacity="0.46"/>
<stop offset="1" stop-color="#231F20"/>
</linearGradient>
</defs>
</svg>
